<svg xmlns="http://www.w3.org/2000/svg" width="175" height="174" viewBox="0 0 175 174">
  <circle cx="87.5" cy="87" r="87" fill="#515151"></circle>
  <g transform="translate(87.5 87) scale(5.4375) translate(-12 -12)" fill="none" stroke="#00C832" stroke-width="1.1" stroke-linecap="round" stroke-linejoin="round">
    <path d="M5.5 21c0 0.2652 0.10536 0.5196 0.29289 0.7071 0.18754 0.1875 0.44189 0.2929 0.70711 0.2929h11c0.2652 0 0.5196 -0.1054 0.7071 -0.2929S18.5 21.2652 18.5 21V11h-13z"></path>
    <path d="M2.5 20.5v-8c-0.02907 -0.2038 -0.01031 -0.4115 0.05479 -0.6067 0.0651 -0.1953 0.17476 -0.3727 0.32029 -0.5182 0.14554 -0.1456 0.32295 -0.2552 0.5182 -0.3203S3.79625 10.9709 4 11h1.5"></path>
    <path d="M21.5 20.5v-8c0.0291 -0.2038 0.0103 -0.4115 -0.0548 -0.6067 -0.0651 -0.1953 -0.1747 -0.3727 -0.3203 -0.5182 -0.1455 -0.1456 -0.3229 -0.2552 -0.5182 -0.3203 -0.1952 -0.0651 -0.4029 -0.0839 -0.6067 -0.0548h-1.5"></path>
    <path d="m10.98 4.07603 -1.943 -2.072"></path>
    <path d="m13.032 4.07603 1.943 -2.072"></path>
    <path d="M17.833 9.00005c0.08 0.00006 0.1588 -0.01906 0.2298 -0.05576 0.0711 -0.03669 0.1323 -0.08989 0.1785 -0.15513s0.0762 -0.14061 0.0872 -0.2198c0.0111 -0.07919 0.003 -0.15988 -0.0235 -0.23531 -0.4629 -1.29164 -1.3202 -2.40507 -2.4506 -3.18282 -1.1303 -0.77775 -2.4766 -1.18046 -3.8484 -1.15118 -1.3754 -0.03301 -2.72611 0.36869 -3.85993 1.14791 -1.13383 0.77922 -1.99295 1.89626 -2.45507 3.19209 -0.02539 0.07516 -0.03252 0.15529 -0.02082 0.23376 0.0117 0.07846 0.04191 0.15302 0.08812 0.2175 0.04621 0.06449 0.10711 0.11705 0.17765 0.15334 0.07055 0.0363 0.14872 0.05529 0.22805 0.0554z"></path>
    <path d="M10.25 7c-0.1381 0 -0.25 -0.11193 -0.25 -0.25s0.1119 -0.25 0.25 -0.25"></path>
    <path d="M10.25 7c0.1381 0 0.25 -0.11193 0.25 -0.25s-0.1119 -0.25 -0.25 -0.25"></path>
    <path d="M13.7535 7c-0.1381 0 -0.25 -0.11193 -0.25 -0.25s0.1119 -0.25 0.25 -0.25"></path>
    <path d="M13.7535 7c0.1381 0 0.25 -0.11193 0.25 -0.25s-0.1119 -0.25 -0.25 -0.25"></path>
  </g>
</svg>