<svg xmlns="http://www.w3.org/2000/svg" width="175" height="174" viewBox="0 0 175 174">
  <circle cx="87.5" cy="87" r="87" fill="#515151"></circle>
  <g transform="translate(87.5 87) scale(4.495) translate(-12 -12)" fill="none" stroke="#FF4F6D" stroke-width="1.2" stroke-linecap="round" stroke-linejoin="round">
    <path d="M1.5 8.5h12s1 0 1 1v12s0 1 -1 1h-12s-1 0 -1 -1v-12s0 -1 1 -1"></path>
    <path d="M16.5 15.5h6a1 1 0 0 0 1 -1v-12a1 1 0 0 0 -1 -1h-12a1 1 0 0 0 -1 1v4"></path>
    <path d="M19 11.75a0.25 0.25 0 0 1 0.25 0.25"></path>
    <path d="M18.75 12a0.25 0.25 0 0 1 0.25 -0.25"></path>
    <path d="M19 12.25a0.25 0.25 0 0 1 -0.25 -0.25"></path>
    <path d="M19.25 12a0.25 0.25 0 0 1 -0.25 0.25"></path>
    <path d="M19 4.75a0.25 0.25 0 0 1 0.25 0.25"></path>
    <path d="M18.75 5a0.25 0.25 0 0 1 0.25 -0.25"></path>
    <path d="M19 5.25a0.25 0.25 0 0 1 -0.25 -0.25"></path>
    <path d="M19.25 5a0.25 0.25 0 0 1 -0.25 0.25"></path>
    <path d="M14 4.75a0.25 0.25 0 0 1 0.25 0.25"></path>
    <path d="M13.75 5a0.25 0.25 0 0 1 0.25 -0.25"></path>
    <path d="M14 5.25a0.25 0.25 0 0 1 -0.25 -0.25"></path>
    <path d="M14.25 5a0.25 0.25 0 0 1 -0.25 0.25"></path>
    <path d="M11 12.75a0.25 0.25 0 0 1 0.25 0.25"></path>
    <path d="M10.75 13a0.25 0.25 0 0 1 0.25 -0.25"></path>
    <path d="M11 13.25a0.25 0.25 0 0 1 -0.25 -0.25"></path>
    <path d="M11.25 13a0.25 0.25 0 0 1 -0.25 0.25"></path>
    <path d="M7.5 12.75a0.25 0.25 0 0 1 0.25 0.25"></path>
    <path d="M7.25 13a0.25 0.25 0 0 1 0.25 -0.25"></path>
    <path d="M7.5 13.25a0.25 0.25 0 0 1 -0.25 -0.25"></path>
    <path d="M7.75 13a0.25 0.25 0 0 1 -0.25 0.25"></path>
    <path d="M4 12.75a0.25 0.25 0 0 1 0.25 0.25"></path>
    <path d="M3.75 13a0.25 0.25 0 0 1 0.25 -0.25"></path>
    <path d="M4 13.25a0.25 0.25 0 0 1 -0.25 -0.25"></path>
    <path d="M4.25 13a0.25 0.25 0 0 1 -0.25 0.25"></path>
    <path d="M4 17.75a0.25 0.25 0 0 1 0.25 0.25"></path>
    <path d="M3.75 18a0.25 0.25 0 0 1 0.25 -0.25"></path>
    <path d="M4 18.25a0.25 0.25 0 0 1 -0.25 -0.25"></path>
    <path d="M4.25 18a0.25 0.25 0 0 1 -0.25 0.25"></path>
    <path d="M7.5 17.75a0.25 0.25 0 0 1 0.25 0.25"></path>
    <path d="M7.25 18a0.25 0.25 0 0 1 0.25 -0.25"></path>
    <path d="M7.5 18.25a0.25 0.25 0 0 1 -0.25 -0.25"></path>
    <path d="M7.75 18a0.25 0.25 0 0 1 -0.25 0.25"></path>
    <path d="M11 17.75a0.25 0.25 0 0 1 0.25 0.25"></path>
    <path d="M10.75 18a0.25 0.25 0 0 1 0.25 -0.25"></path>
    <path d="M11 18.25a0.25 0.25 0 0 1 -0.25 -0.25"></path>
    <path d="M11.25 18a0.25 0.25 0 0 1 -0.25 0.25"></path>
  </g>
</svg>