<svg xmlns="http://www.w3.org/2000/svg" width="175" height="174" viewBox="0 0 175 174"> <circle cx="87.5" cy="87" r="87" fill="#515151"/> <g transform="translate(87.5 87) scale(4.8575) translate(-12 -12)" fill="none" stroke="#BE5DFF" stroke-width="1.25" stroke-linecap="round" stroke-linejoin="round"> <path d="M0.5 16.5c0 0.2652 0.105357 0.5196 0.292893 0.7071 0.187537 0.1875 0.441887 0.2929 0.707107 0.2929h2v4l4 -4h15c0.2652 0 0.5196 -0.1054 0.7071 -0.2929s0.2929 -0.4419 0.2929 -0.7071v-13c0 -0.26522 -0.1054 -0.51957 -0.2929 -0.70711C23.0196 2.60536 22.7652 2.5 22.5 2.5h-21c-0.26522 0 -0.51957 0.10536 -0.707107 0.29289C0.605357 2.98043 0.5 3.23478 0.5 3.5z"/> <path d="M7.25 10.25c-0.13807 0 -0.25 -0.1119 -0.25 -0.25 0 -0.13807 0.11193 -0.25 0.25 -0.25"/> <path d="M7.25 10.25c0.13807 0 0.25 -0.1119 0.25 -0.25 0 -0.13807 -0.11193 -0.25 -0.25 -0.25"/> <path d="M12 10.25c-0.1381 0 -0.25 -0.1119 -0.25 -0.25 0 -0.13807 0.1119 -0.25 0.25 -0.25"/> <path d="M12 10.25c0.1381 0 0.25 -0.1119 0.25 -0.25 0 -0.13807 -0.1119 -0.25 -0.25 -0.25"/> <path d="M16.75 10.25c-0.1381 0 -0.25 -0.1119 -0.25 -0.25 0 -0.13807 0.1119 -0.25 0.25 -0.25"/> <path d="M16.75 10.25c0.1381 0 0.25 -0.1119 0.25 -0.25 0 -0.13807 -0.1119 -0.25 -0.25 -0.25"/> </g> </svg>