<svg xmlns="http://www.w3.org/2000/svg" width="175" height="174" viewBox="0 0 175 174">
  <path d="M156,56.43L18,56.46" fill="none" stroke="#525351" stroke-width="2.00" stroke-linecap="butt"/>
  <path d="M143.5,17.07A4.54,4.54 0,0 0,138.96 12.53L35.36,12.53A4.54,4.54 0,0 0,30.82 17.07L30.82,38.71A4.54,4.54 0,0 0,35.36 43.25L138.96,43.25A4.54,4.54 0,0 0,143.5 38.71L143.5,17.07" fill="none" stroke="#6f8853" stroke-width="2.00" stroke-linecap="butt"/>
  <path d="M117.51,26.15A0.39,0.39 0,0 0,117.12 25.76L109.22,25.74A0.39,0.39 0,0 0,108.83 26.13L108.81,33.97A0.39,0.39 0,0 0,109.2 34.36L117.1,34.38A0.39,0.39 0,0 0,117.49 33.99L117.51,26.15" fill="none" stroke="#6f8853" stroke-width="2.00" stroke-linecap="butt"/>
  <path d="M134.76,26.06A0.3,0.3 0,0 0,134.46 25.76L126.56,25.74A0.3,0.3 0,0 0,126.26 26.04L126.24,33.96A0.3,0.3 0,0 0,126.54 34.26L134.44,34.28A0.3,0.3 0,0 0,134.74 33.98L134.76,26.06" fill="none" stroke="#6f8853" stroke-width="2.00" stroke-linecap="butt"/>
  <path d="M143.36,69.07A4.24,4.24 0,0 0,139.12 64.83L126.26,64.83A4.24,4.24 0,0 0,122.02 69.07L122.02,78.19A4.24,4.24 0,0 0,126.26 82.43L139.12,82.43A4.24,4.24 0,0 0,143.36 78.19L143.36,69.07" fill="none" stroke="#b05a5a" stroke-width="2.00" stroke-linecap="butt"/>
  <path d="M52.5,69.13A4.12,4.12 0,0 0,48.39 65L35.13,64.98A4.12,4.12 0,0 0,31 69.09L30.98,78.29A4.12,4.12 0,0 0,35.09 82.42L48.35,82.44A4.12,4.12 0,0 0,52.48 78.33L52.5,69.13" fill="none" stroke="#a1a1a1" stroke-width="2.00" stroke-linecap="butt"/>
  <path d="M82.74,69.01A4.07,4.07 0,0 0,78.66 64.96L65.32,65A4.07,4.07 0,0 0,61.26 69.09L61.3,78.41A4.07,4.07 0,0 0,65.38 82.46L78.72,82.42A4.07,4.07 0,0 0,82.78 78.33L82.74,69.01" fill="none" stroke="#a1a1a1" stroke-width="2.00" stroke-linecap="butt"/>
  <path d="M113.22,69.26A4.3,4.3 0,0 0,108.91 64.97L95.79,64.99A4.3,4.3 0,0 0,91.5 69.3L91.52,78.18A4.3,4.3 0,0 0,95.83 82.47L108.95,82.45A4.3,4.3 0,0 0,113.24 78.14L113.22,69.26" fill="none" stroke="#a1a1a1" stroke-width="2.00" stroke-linecap="butt"/>
  <path d="M52.47,95.12A4.13,4.13 0,0 0,48.31 91.02L35.07,91.08A4.13,4.13 0,0 0,30.97 95.24L31.01,104.44A4.13,4.13 0,0 0,35.17 108.54L48.41,108.48A4.13,4.13 0,0 0,52.51 104.32L52.47,95.12" fill="none" stroke="#a1a1a1" stroke-width="2.00" stroke-linecap="butt"/>
  <path d="M82.79,95.16A4.09,4.09 0,0 0,78.71 91.05L65.39,91.01A4.09,4.09 0,0 0,61.29 95.08L61.25,104.38A4.09,4.09 0,0 0,65.33 108.49L78.65,108.53A4.09,4.09 0,0 0,82.75 104.46L82.79,95.16" fill="none" stroke="#a1a1a1" stroke-width="2.00" stroke-linecap="butt"/>
  <path d="M113.23,95.33A4.3,4.3 0,0 0,108.93 91.03L95.81,91.03A4.3,4.3 0,0 0,91.51 95.33L91.51,104.21A4.3,4.3 0,0 0,95.81 108.51L108.93,108.51A4.3,4.3 0,0 0,113.23 104.21L113.23,95.33" fill="none" stroke="#a1a1a1" stroke-width="2.00" stroke-linecap="butt"/>
  <path d="M143.49,95.46A4.43,4.43 0,0 0,139.06 91.03L126.2,91.03A4.43,4.43 0,0 0,121.77 95.46L121.77,104.08A4.43,4.43 0,0 0,126.2 108.51L139.06,108.51A4.43,4.43 0,0 0,143.49 104.08L143.49,95.46" fill="none" stroke="#909090" stroke-width="2.00" stroke-linecap="butt"/>
  <path d="M52.51,121.45A4.15,4.15 0,0 0,48.39 117.27L35.19,117.21A4.15,4.15 0,0 0,31.01 121.33L30.97,130.49A4.15,4.15 0,0 0,35.09 134.67L48.29,134.73A4.15,4.15 0,0 0,52.47 130.61L52.51,121.45" fill="none" stroke="#a1a1a1" stroke-width="2.00" stroke-linecap="butt"/>
  <path d="M82.75,121.28A4.07,4.07 0,0 0,78.67 117.22L65.31,117.24A4.07,4.07 0,0 0,61.25 121.32L61.27,130.66A4.07,4.07 0,0 0,65.35 134.72L78.71,134.7A4.07,4.07 0,0 0,82.77 130.62L82.75,121.28" fill="none" stroke="#a1a1a1" stroke-width="2.00" stroke-linecap="butt"/>
  <path d="M113.24,121.58A4.32,4.32 0,0 0,108.93 117.25L95.85,117.23A4.32,4.32 0,0 0,91.52 121.54L91.5,130.38A4.32,4.32 0,0 0,95.81 134.71L108.89,134.73A4.32,4.32 0,0 0,113.22 130.42L113.24,121.58" fill="none" stroke="#a1a1a1" stroke-width="2.00" stroke-linecap="butt"/>
  <path d="M143.5,121.66A4.42,4.42 0,0 0,139.08 117.24L126.2,117.24A4.42,4.42 0,0 0,121.78 121.66L121.78,130.28A4.42,4.42 0,0 0,126.2 134.7L139.08,134.7A4.42,4.42 0,0 0,143.5 130.28L143.5,121.66" fill="none" stroke="#909090" stroke-width="2.00" stroke-linecap="butt"/>
  <path d="M52.47,147.38A4.1,4.1 0,0 0,48.34 143.31L35.06,143.37A4.1,4.1 0,0 0,30.99 147.5L31.03,156.72A4.1,4.1 0,0 0,35.16 160.79L48.44,160.73A4.1,4.1 0,0 0,52.51 156.6L52.47,147.38" fill="none" stroke="#a1a1a1" stroke-width="2.00" stroke-linecap="butt"/>
  <path d="M143.52,147.72A4.43,4.43 0,0 0,139.1 143.28L126.22,143.26A4.43,4.43 0,0 0,121.78 147.68L121.76,156.32A4.43,4.43 0,0 0,126.18 160.76L139.06,160.78A4.43,4.43 0,0 0,143.5 156.36L143.52,147.72" fill="none" stroke="#909090" stroke-width="2.00" stroke-linecap="butt"/>
  <path d="M82.78,147.39A3.86,3.86 0,0 0,78.95 143.51L65.17,143.43A3.86,3.86 0,0 0,61.29 147.27L61.24,156.81A3.86,3.86 0,0 0,65.07 160.69L78.85,160.77A3.86,3.86 0,0 0,82.73 156.93L82.78,147.39" fill="none" stroke="#a1a1a1" stroke-width="2.00" stroke-linecap="butt"/>
  <path d="M113.24,147.61A4.13,4.13 0,0 0,109.11 143.48L95.63,143.48A4.13,4.13 0,0 0,91.5 147.61L91.5,156.61A4.13,4.13 0,0 0,95.63 160.74L109.11,160.74A4.13,4.13 0,0 0,113.24 156.61L113.24,147.61" fill="none" stroke="#a1a1a1" stroke-width="2.00" stroke-linecap="butt"/>
  <path d="M31.3,0L143.27,0Q151.56,2.38 154.61,9.11Q156,12.19 156,18.6Q156,37.1 156,56.43L18,56.46Q18,37.12 18,18.2C18,9.05 22.12,2.55 31.3,0ZM143.5,17.07A4.54,4.54 0,0 0,138.96 12.53L35.36,12.53A4.54,4.54 0,0 0,30.82 17.07L30.82,38.71A4.54,4.54 0,0 0,35.36 43.25L138.96,43.25A4.54,4.54 0,0 0,143.5 38.71L143.5,17.07Z" fill="#424441"/>
  <path d="M143.5,38.71A4.54,4.54 0,0 1,138.96 43.25L35.36,43.25A4.54,4.54 0,0 1,30.82 38.71L30.82,17.07A4.54,4.54 0,0 1,35.36 12.53L138.96,12.53A4.54,4.54 0,0 1,143.5 17.07L143.5,38.71ZM117.51,26.15A0.39,0.39 0,0 0,117.12 25.76L109.22,25.74A0.39,0.39 0,0 0,108.83 26.13L108.81,33.97A0.39,0.39 0,0 0,109.2 34.36L117.1,34.38A0.39,0.39 0,0 0,117.49 33.99L117.51,26.15ZM134.76,26.06A0.3,0.3 0,0 0,134.46 25.76L126.56,25.74A0.3,0.3 0,0 0,126.26 26.04L126.24,33.96A0.3,0.3 0,0 0,126.54 34.26L134.44,34.28A0.3,0.3 0,0 0,134.74 33.98L134.76,26.06Z" fill="#9bcb64"/>
  <path d="M109.22,25.74L117.12,25.76A0.39,0.39 45.1,0 1,117.51 26.15L117.49,33.99A0.39,0.39 45.1,0 1,117.1 34.38L109.2,34.36A0.39,0.39 45.1,0 1,108.81 33.97L108.83,26.13A0.39,0.39 45.1,0 1,109.22 25.74z" fill="#424441"/>
  <path d="M126.56,25.74L134.46,25.76A0.3,0.3 45.2,0 1,134.76 26.06L134.74,33.98A0.3,0.3 45.2,0 1,134.44 34.28L126.54,34.26A0.3,0.3 45.2,0 1,126.24 33.96L126.26,26.04A0.3,0.3 45.2,0 1,126.56 25.74z" fill="#424441"/>
  <path d="M156,56.43Q156.01,106.81 156.04,158.25C156.04,166.22 149.46,171.83 142.44,174L32.69,174C22.4,171.58 18,164.57 18,154.56Q18,105.27 18,56.46L156,56.43ZM143.36,69.07A4.24,4.24 0,0 0,139.12 64.83L126.26,64.83A4.24,4.24 0,0 0,122.02 69.07L122.02,78.19A4.24,4.24 0,0 0,126.26 82.43L139.12,82.43A4.24,4.24 0,0 0,143.36 78.19L143.36,69.07ZM52.5,69.13A4.12,4.12 0,0 0,48.39 65L35.13,64.98A4.12,4.12 0,0 0,31 69.09L30.98,78.29A4.12,4.12 0,0 0,35.09 82.42L48.35,82.44A4.12,4.12 0,0 0,52.48 78.33L52.5,69.13ZM82.74,69.01A4.07,4.07 0,0 0,78.66 64.96L65.32,65A4.07,4.07 0,0 0,61.26 69.09L61.3,78.41A4.07,4.07 0,0 0,65.38 82.46L78.72,82.42A4.07,4.07 0,0 0,82.78 78.33L82.74,69.01ZM113.22,69.26A4.3,4.3 0,0 0,108.91 64.97L95.79,64.99A4.3,4.3 0,0 0,91.5 69.3L91.52,78.18A4.3,4.3 0,0 0,95.83 82.47L108.95,82.45A4.3,4.3 0,0 0,113.24 78.14L113.22,69.26ZM52.47,95.12A4.13,4.13 0,0 0,48.31 91.02L35.07,91.08A4.13,4.13 0,0 0,30.97 95.24L31.01,104.44A4.13,4.13 0,0 0,35.17 108.54L48.41,108.48A4.13,4.13 0,0 0,52.51 104.32L52.47,95.12ZM82.79,95.16A4.09,4.09 0,0 0,78.71 91.05L65.39,91.01A4.09,4.09 0,0 0,61.29 95.08L61.25,104.38A4.09,4.09 0,0 0,65.33 108.49L78.65,108.53A4.09,4.09 0,0 0,82.75 104.46L82.79,95.16ZM113.23,95.33A4.3,4.3 0,0 0,108.93 91.03L95.81,91.03A4.3,4.3 0,0 0,91.51 95.33L91.51,104.21A4.3,4.3 0,0 0,95.81 108.51L108.93,108.51A4.3,4.3 0,0 0,113.23 104.21L113.23,95.33ZM143.49,95.46A4.43,4.43 0,0 0,139.06 91.03L126.2,91.03A4.43,4.43 0,0 0,121.77 95.46L121.77,104.08A4.43,4.43 0,0 0,126.2 108.51L139.06,108.51A4.43,4.43 0,0 0,143.49 104.08L143.49,95.46ZM52.51,121.45A4.15,4.15 0,0 0,48.39 117.27L35.19,117.21A4.15,4.15 0,0 0,31.01 121.33L30.97,130.49A4.15,4.15 0,0 0,35.09 134.67L48.29,134.73A4.15,4.15 0,0 0,52.47 130.61L52.51,121.45ZM82.75,121.28A4.07,4.07 0,0 0,78.67 117.22L65.31,117.24A4.07,4.07 0,0 0,61.25 121.32L61.27,130.66A4.07,4.07 0,0 0,65.35 134.72L78.71,134.7A4.07,4.07 0,0 0,82.77 130.62L82.75,121.28ZM113.24,121.58A4.32,4.32 0,0 0,108.93 117.25L95.85,117.23A4.32,4.32 0,0 0,91.52 121.54L91.5,130.38A4.32,4.32 0,0 0,95.81 134.71L108.89,134.73A4.32,4.32 0,0 0,113.22 130.42L113.24,121.58ZM143.5,121.66A4.42,4.42 0,0 0,139.08 117.24L126.2,117.24A4.42,4.42 0,0 0,121.78 121.66L121.78,130.28A4.42,4.42 0,0 0,126.2 134.7L139.08,134.7A4.42,4.42 0,0 0,143.5 130.28L143.5,121.66ZM52.47,147.38A4.1,4.1 0,0 0,48.34 143.31L35.06,143.37A4.1,4.1 0,0 0,30.99 147.5L31.03,156.72A4.1,4.1 0,0 0,35.16 160.79L48.44,160.73A4.1,4.1 0,0 0,52.51 156.6L52.47,147.38ZM143.52,147.72A4.43,4.43 0,0 0,139.1 143.28L126.22,143.26A4.43,4.43 0,0 0,121.78 147.68L121.76,156.32A4.43,4.43 0,0 0,126.18 160.76L139.06,160.78A4.43,4.43 0,0 0,143.5 156.36L143.52,147.72ZM82.78,147.39A3.86,3.86 0,0 0,78.95 143.51L65.17,143.43A3.86,3.86 0,0 0,61.29 147.27L61.24,156.81A3.86,3.86 0,0 0,65.07 160.69L78.85,160.77A3.86,3.86 0,0 0,82.73 156.93L82.78,147.39ZM113.24,147.61A4.13,4.13 0,0 0,109.11 143.48L95.63,143.48A4.13,4.13 0,0 0,91.5 147.61L91.5,156.61A4.13,4.13 0,0 0,95.63 160.74L109.11,160.74A4.13,4.13 0,0 0,113.24 156.61L113.24,147.61Z" fill="#616161"/>
  <path d="M126.26,64.83L139.12,64.83A4.24,4.24 0,0 1,143.36 69.07L143.36,78.19A4.24,4.24 0,0 1,139.12 82.43L126.26,82.43A4.24,4.24 0,0 1,122.02 78.19L122.02,69.07A4.24,4.24 0,0 1,126.26 64.83z" fill="#fe5252"/>
  <path d="M35.13,64.98L48.39,65A4.12,4.12 45.1,0 1,52.5 69.13L52.48,78.33A4.12,4.12 45.1,0 1,48.35 82.44L35.09,82.42A4.12,4.12 45.1,0 1,30.98 78.29L31,69.09A4.12,4.12 45.1,0 1,35.13 64.98z" fill="#e0e0e0"/>
  <path d="M65.32,65L78.66,64.96A4.07,4.07 134.8,0 1,82.74 69.01L82.78,78.33A4.07,4.07 134.8,0 1,78.72 82.42L65.38,82.46A4.07,4.07 134.8,0 1,61.3 78.41L61.26,69.09A4.07,4.07 134.8,0 1,65.32 65z" fill="#e0e0e0"/>
  <path d="M95.79,64.99L108.91,64.97A4.3,4.3 134.9,0 1,113.22 69.26L113.24,78.14A4.3,4.3 134.9,0 1,108.95 82.45L95.83,82.47A4.3,4.3 134.9,0 1,91.52 78.18L91.5,69.3A4.3,4.3 134.9,0 1,95.79 64.99z" fill="#e0e0e0"/>
  <path d="M35.07,91.08L48.31,91.02A4.13,4.13 134.7,0 1,52.47 95.12L52.51,104.32A4.13,4.13 134.7,0 1,48.41 108.48L35.17,108.54A4.13,4.13 134.7,0 1,31.01 104.44L30.97,95.24A4.13,4.13 134.7,0 1,35.07 91.08z" fill="#e0e0e0"/>
  <path d="M65.39,91.01L78.71,91.05A4.09,4.09 45.2,0 1,82.79 95.16L82.75,104.46A4.09,4.09 45.2,0 1,78.65 108.53L65.33,108.49A4.09,4.09 45.2,0 1,61.25 104.38L61.29,95.08A4.09,4.09 45.2,0 1,65.39 91.01z" fill="#e0e0e0"/>
  <path d="M95.81,91.03L108.93,91.03A4.3,4.3 0,0 1,113.23 95.33L113.23,104.21A4.3,4.3 0,0 1,108.93 108.51L95.81,108.51A4.3,4.3 0,0 1,91.51 104.21L91.51,95.33A4.3,4.3 0,0 1,95.81 91.03z" fill="#e0e0e0"/>
  <path d="M126.2,91.03L139.06,91.03A4.43,4.43 0,0 1,143.49 95.46L143.49,104.08A4.43,4.43 0,0 1,139.06 108.51L126.2,108.51A4.43,4.43 0,0 1,121.77 104.08L121.77,95.46A4.43,4.43 0,0 1,126.2 91.03z" fill="#bebebe"/>
  <path d="M35.19,117.21L48.39,117.27A4.15,4.15 45.3,0 1,52.51 121.45L52.47,130.61A4.15,4.15 45.3,0 1,48.29 134.73L35.09,134.67A4.15,4.15 45.3,0 1,30.97 130.49L31.01,121.33A4.15,4.15 45.3,0 1,35.19 117.21z" fill="#e0e0e0"/>
  <path d="M65.31,117.24L78.67,117.22A4.07,4.07 134.9,0 1,82.75 121.28L82.77,130.62A4.07,4.07 134.9,0 1,78.71 134.7L65.35,134.72A4.07,4.07 134.9,0 1,61.27 130.66L61.25,121.32A4.07,4.07 134.9,0 1,65.31 117.24z" fill="#e0e0e0"/>
  <path d="M95.85,117.23L108.93,117.25A4.32,4.32 45.1,0 1,113.24 121.58L113.22,130.42A4.32,4.32 45.1,0 1,108.89 134.73L95.81,134.71A4.32,4.32 45.1,0 1,91.5 130.38L91.52,121.54A4.32,4.32 45.1,0 1,95.85 117.23z" fill="#e0e0e0"/>
  <path d="M126.2,117.24L139.08,117.24A4.42,4.42 0,0 1,143.5 121.66L143.5,130.28A4.42,4.42 0,0 1,139.08 134.7L126.2,134.7A4.42,4.42 0,0 1,121.78 130.28L121.78,121.66A4.42,4.42 0,0 1,126.2 117.24z" fill="#bebebe"/>
  <path d="M35.06,143.37L48.34,143.31A4.1,4.1 134.7,0 1,52.47 147.38L52.51,156.6A4.1,4.1 134.7,0 1,48.44 160.73L35.16,160.79A4.1,4.1 134.7,0 1,31.03 156.72L30.99,147.5A4.1,4.1 134.7,0 1,35.06 143.37z" fill="#e0e0e0"/>
  <path d="M126.22,143.26L139.1,143.28A4.43,4.43 45.1,0 1,143.52 147.72L143.5,156.36A4.43,4.43 45.1,0 1,139.06 160.78L126.18,160.76A4.43,4.43 45.1,0 1,121.76 156.32L121.78,147.68A4.43,4.43 45.1,0 1,126.22 143.26z" fill="#bebebe"/>
  <path d="M65.17,143.43L78.95,143.51A3.86,3.86 45.3,0 1,82.78 147.39L82.73,156.93A3.86,3.86 45.3,0 1,78.85 160.77L65.07,160.69A3.86,3.86 45.3,0 1,61.24 156.81L61.29,147.27A3.86,3.86 45.3,0 1,65.17 143.43z" fill="#e0e0e0"/>
  <path d="M95.63,143.48L109.11,143.48A4.13,4.13 0,0 1,113.24 147.61L113.24,156.61A4.13,4.13 0,0 1,109.11 160.74L95.63,160.74A4.13,4.13 0,0 1,91.5 156.61L91.5,147.61A4.13,4.13 0,0 1,95.63 143.48z" fill="#e0e0e0"/>
</svg>
