<svg xmlns="http://www.w3.org/2000/svg" width="175" height="174" viewBox="0 0 175 174">
  <path d="M37.8,14.47Q37.42,17.32 38.25,20.54" fill="none" stroke="#028af3" stroke-width="2.00" stroke-linecap="butt"/>
  <path d="M38.25,20.54C37.84,24.17 38.67,29.19 36.99,31.97C34.27,36.45 26.55,35.17 26.4,28.84Q26.3,24.66 25.96,20.5" fill="none" stroke="#50a6f3" stroke-width="2.00" stroke-linecap="butt"/>
  <path d="M25.96,20.5Q26.76,17.7 26.34,14.52" fill="none" stroke="#028af3" stroke-width="2.00" stroke-linecap="butt"/>
  <path d="M148.72,14.55L148.91,20.54" fill="none" stroke="#028af3" stroke-width="2.00" stroke-linecap="butt"/>
  <path d="M148.91,20.54C148.68,23.95 149.52,29.71 147.72,32.28C145.67,35.21 141.55,35.37 138.92,33.07C136.32,30.81 137.35,23.82 137.08,20.54" fill="none" stroke="#50a6f3" stroke-width="2.00" stroke-linecap="butt"/>
  <path d="M137.08,20.54Q137.56,17.43 137,14.46" fill="none" stroke="#028af3" stroke-width="2.00" stroke-linecap="butt"/>
  <path d="M137.08,20.54Q87.51,21.05 38.25,20.54" fill="none" stroke="#4f95ff" stroke-width="2.00" stroke-linecap="butt"/>
  <path d="M25.96,20.5L6.37,20.64Q5.75,20.65 5.75,21.26L5.75,51.63Q5.75,52.25 6.38,52.25L168.5,52.24A0.75,0.74 0,0 0,169.25 51.5L169.25,21.24Q169.25,20.62 168.63,20.61L148.91,20.54" fill="none" stroke="#4f95ff" stroke-width="2.00" stroke-linecap="butt"/>
  <path d="M151.45,174Q123.43,173.43 95.44,174" fill="none" stroke="#028af3" stroke-width="2.00" stroke-linecap="butt"/>
  <path d="M78.7,174Q39.69,173.44 0.68,174" fill="none" stroke="#028af3" stroke-width="2.00" stroke-linecap="butt"/>
  <path d="M96.36,111.89A0.32,0.32 0,0 0,96.87 112.15L112.54,101.07A0.32,0.32 0,0 1,113.05 101.33L112.98,147.43A0.32,0.32 0,0 0,113.3 147.75L125.18,147.75A0.32,0.32 0,0 0,125.5 147.43L125.5,81.59A0.32,0.32 0,0 0,125.18 81.27L117.22,81.22A0.32,0.32 0,0 0,117 81.31L96.31,100.78A0.32,0.32 0,0 0,96.21 101.02L96.36,111.89" fill="none" stroke="#80bcff" stroke-width="2.00" stroke-linecap="butt"/>
  <path d="M77.06,85.69C63.82,75.38 45.43,83.58 43.75,100.19A0.51,0.51 0,0 0,44.26 100.75L55.53,100.75Q56.08,100.75 56.15,100.2C56.84,94.82 61.82,91.82 66.68,93.37C77.04,96.67 72.39,110.19 61.21,108.46Q60.25,108.31 60.25,109.28L60.25,119.8Q60.25,120.49 60.94,120.49C63.32,120.52 65.6,120.22 67.67,121.21C76.05,125.24 72.13,136.91 63.28,136.01Q57.17,135.39 56.12,128.78A0.64,0.64 0,0 0,55.49 128.25L44.3,128.25A0.45,0.45 0,0 0,43.85 128.73Q44.4,138.31 51.81,143.71C70.74,157.53 95.61,134.36 79.29,114.95Q78.79,114.35 79.33,113.8C87.31,105.65 85.92,92.58 77.06,85.69" fill="none" stroke="#80bcff" stroke-width="2.00" stroke-linecap="butt"/>
  <path d="M31.09,0L33.29,0C39.2,1.65 38.28,8.89 37.8,14.47Q37.42,17.32 38.25,20.54C37.84,24.17 38.67,29.19 36.99,31.97C34.27,36.45 26.55,35.17 26.4,28.84Q26.3,24.66 25.96,20.5Q26.76,17.7 26.34,14.52C26.11,8.46 24.96,1.39 31.09,0Z" fill="#039be6"/>
  <path d="M141.83,0L144.27,0C150.52,1.84 148.77,9.58 148.72,14.55L148.91,20.54C148.68,23.95 149.52,29.71 147.72,32.28C145.67,35.21 141.55,35.37 138.92,33.07C136.32,30.81 137.35,23.82 137.08,20.54Q137.56,17.43 137,14.46C137.55,9.33 135.25,2.05 141.83,0Z" fill="#039be6"/>
  <path d="M37.8,14.47L137,14.46Q137.56,17.43 137.08,20.54Q87.51,21.05 38.25,20.54Q37.42,17.32 37.8,14.47Z" fill="#0079ff"/>
  <path d="M26.34,14.52Q26.76,17.7 25.96,20.5L6.37,20.64Q5.75,20.65 5.75,21.26L5.75,51.63Q5.75,52.25 6.38,52.25L168.5,52.24A0.75,0.74 0,0 0,169.25 51.5L169.25,21.24Q169.25,20.62 168.63,20.61L148.91,20.54L148.72,14.55L175,14.63L175,174L151.45,174Q123.43,173.43 95.44,174L78.7,174Q39.69,173.44 0.68,174L0,174L0,14.58L26.34,14.52ZM96.36,111.89A0.32,0.32 0,0 0,96.87 112.15L112.54,101.07A0.32,0.32 0,0 1,113.05 101.33L112.98,147.43A0.32,0.32 0,0 0,113.3 147.75L125.18,147.75A0.32,0.32 0,0 0,125.5 147.43L125.5,81.59A0.32,0.32 0,0 0,125.18 81.27L117.22,81.22A0.32,0.32 0,0 0,117 81.31L96.31,100.78A0.32,0.32 0,0 0,96.21 101.02L96.36,111.89ZM77.06,85.69C63.82,75.38 45.43,83.58 43.75,100.19A0.51,0.51 0,0 0,44.26 100.75L55.53,100.75Q56.08,100.75 56.15,100.2C56.84,94.82 61.82,91.82 66.68,93.37C77.04,96.67 72.39,110.19 61.21,108.46Q60.25,108.31 60.25,109.28L60.25,119.8Q60.25,120.49 60.94,120.49C63.32,120.52 65.6,120.22 67.67,121.21C76.05,125.24 72.13,136.91 63.28,136.01Q57.17,135.39 56.12,128.78A0.64,0.64 0,0 0,55.49 128.25L44.3,128.25A0.45,0.45 0,0 0,43.85 128.73Q44.4,138.31 51.81,143.71C70.74,157.53 95.61,134.36 79.29,114.95Q78.79,114.35 79.33,113.8C87.31,105.65 85.92,92.58 77.06,85.69Z" fill="#0079ff"/>
  <path d="M25.96,20.5Q26.3,24.66 26.4,28.84C26.55,35.17 34.27,36.45 36.99,31.97C38.67,29.19 37.84,24.17 38.25,20.54Q87.51,21.05 137.08,20.54C137.35,23.82 136.32,30.81 138.92,33.07C141.55,35.37 145.67,35.21 147.72,32.28C149.52,29.71 148.68,23.95 148.91,20.54L168.63,20.61Q169.25,20.62 169.25,21.24L169.25,51.5A0.75,0.74 0,0 1,168.5 52.24L6.38,52.25Q5.75,52.25 5.75,51.63L5.75,21.26Q5.75,20.65 6.37,20.64L25.96,20.5Z" fill="#9db0ff"/>
  <path d="M96.36,111.89L96.21,101.02A0.32,0.32 0,0 1,96.31 100.78L117,81.31A0.32,0.32 0,0 1,117.22 81.22L125.18,81.27A0.32,0.32 0,0 1,125.5 81.59L125.5,147.43A0.32,0.32 0,0 1,125.18 147.75L113.3,147.75A0.32,0.32 0,0 1,112.98 147.43L113.05,101.33A0.32,0.32 0,0 0,112.54 101.07L96.87,112.15A0.32,0.32 0,0 1,96.36 111.89Z" fill="#ffffff"/>
  <path d="M77.06,85.69C85.92,92.58 87.31,105.65 79.33,113.8Q78.79,114.35 79.29,114.95C95.61,134.36 70.74,157.53 51.81,143.71Q44.4,138.31 43.85,128.73A0.45,0.45 0,0 1,44.3 128.25L55.49,128.25A0.64,0.64 0,0 1,56.12 128.78Q57.17,135.39 63.28,136.01C72.13,136.91 76.05,125.24 67.67,121.21C65.6,120.22 63.32,120.52 60.94,120.49Q60.25,120.49 60.25,119.8L60.25,109.28Q60.25,108.31 61.21,108.46C72.39,110.19 77.04,96.67 66.68,93.37C61.82,91.82 56.84,94.82 56.15,100.2Q56.08,100.75 55.53,100.75L44.26,100.75A0.51,0.51 0,0 1,43.75 100.19C45.43,83.58 63.82,75.38 77.06,85.69Z" fill="#ffffff"/>
  <path d="M78.7,174L0.68,174Q39.69,173.44 78.7,174Z" fill="#039be6"/>
  <path d="M151.45,174L95.44,174Q123.43,173.43 151.45,174Z" fill="#039be6"/>
</svg>
