<svg xmlns="http://www.w3.org/2000/svg" width="175" height="174" viewBox="0 0 175 174">
  <path d="M78.52,35.7C76.61,36.15 75.24,35.75 73.75,35.75Q47.67,35.74 21.58,35.76C11.01,35.77 4.93,38.33 0.43,48.02" fill="none" stroke="#ffb514" stroke-width="2.00" stroke-linecap="butt"/>
  <path d="M78.52,35.7C76.61,36.15 75.24,35.75 73.75,35.75Q47.67,35.74 21.58,35.76C11.01,35.77 4.93,38.33 0.43,48.02C-0.04,36.92 -1.4,24.71 11.05,19.65Q14.52,18.24 21.66,18.24Q41.18,18.25 60.72,18.25A1.23,1.2 67,0 1,61.58 18.61L78.52,35.7Z" fill="#ffa000"/>
  <path d="M78.52,35.7Q116.31,35.77 154.7,35.76C168.47,35.76 174.75,42.81 174.75,56.31Q174.74,95.11 174.76,133.89Q174.77,143.62 173.22,147.39C169.99,155.27 163.24,157.77 154.82,157.76Q87.26,157.73 19.7,157.76C7.32,157.77 0.15,150.94 0.23,138.43Q0.45,105.94 0,73.44L0,51.21L0.43,48.02C4.93,38.33 11.01,35.77 21.58,35.76Q47.67,35.74 73.75,35.75C75.24,35.75 76.61,36.15 78.52,35.7Z" fill="#ffca28"/>
</svg>
