<svg xmlns="http://www.w3.org/2000/svg" width="175" height="174" viewBox="0 0 175 174">
  <path d="M141.12,170.77L140.98,133.92" fill="none" stroke="#b37138" stroke-width="2.00" stroke-linecap="butt"/>
  <path d="M140.98,133.92L140.93,92.23" fill="none" stroke="#a46229" stroke-width="2.00" stroke-linecap="butt"/>
  <path d="M34.57,92.14L34.49,126.45" fill="none" stroke="#a46229" stroke-width="2.00" stroke-linecap="butt"/>
  <path d="M34.49,126.45L34.35,170.76" fill="none" stroke="#b37138" stroke-width="2.00" stroke-linecap="butt"/>
  <path d="M51.21,140.2L34.49,126.45" fill="none" stroke="#575757" stroke-width="2.00" stroke-linecap="butt"/>
  <path d="M140.98,133.92L124.58,120.44" fill="none" stroke="#575757" stroke-width="2.00" stroke-linecap="butt"/>
  <path d="M175,81.16L175,95.52Q174.38,98.21 175,100.83L175,133.56C173.4,152.76 159.86,166.72 141.12,170.77L140.98,133.92L140.93,92.23Q154.11,94.49 163.61,104.13A0.26,0.25 22.5,0 0,164.05 103.95L163.99,84.65A0.63,0.63 0,0 0,163.39 84.02L161.3,83.94Q160.66,83.91 160.64,83.27C158.64,33.82 111.58,4.69 65.34,18.11C34.14,27.16 17.98,51.69 14.76,83.34A0.64,0.64 0,0 1,14.12 83.91L11.53,83.92A0.54,0.53 90,0 0,11 84.46L11,103.89A0.38,0.38 0,0 0,11.65 104.15Q21.21,94.42 34.57,92.14L34.49,126.45L34.35,170.76C18.4,167.3 5.72,156.69 1.57,141.09Q0.2,135.93 0.26,123.8Q0.34,103.74 0,83.69L0,81.19Q2.28,58.82 13.82,40.25C40.61,-2.87 102.26,-11.06 141.76,18.91Q171.52,41.49 175,81.16Z" fill="#ff7b0a"/>
  <path d="M51.21,140.2L34.49,126.45L34.57,92.14C38.95,89.32 46.53,88.72 50.82,92.43A1.22,1.2 -70,0 1,51.24 93.35L51.21,140.2Z" fill="#484848"/>
  <path d="M140.93,92.23L140.98,133.92L124.58,120.44L124.6,93.02Q124.6,92.45 125.1,92.16Q132.47,87.8 140.93,92.23Z" fill="#484848"/>
  <path d="M124.58,120.44L140.98,133.92L141.12,170.77Q135.48,175.85 126.62,172.52Q125.6,172.13 124.84,171.18A1.43,1.41 -65.1,0 1,124.52 170.28L124.58,120.44Z" fill="#666666"/>
  <path d="M34.49,126.45L51.21,140.2Q51.33,161.75 51.24,169C51.23,170.35 50.36,171.58 49.04,172.12Q40.48,175.64 34.35,170.76L34.49,126.45Z" fill="#666666"/>
</svg>
