<svg xmlns="http://www.w3.org/2000/svg" width="175" height="174" viewBox="0 0 175 174">
  <path d="M126.41,87.04A38.91,38.91 0,0 0,87.5 48.13A38.91,38.91 0,0 0,48.59 87.04A38.91,38.91 0,0 0,87.5 125.95A38.91,38.91 0,0 0,126.41 87.04" fill="none" stroke="#babdbb" stroke-width="2.00" stroke-linecap="butt"/>
  <path d="M111.56,87.03A24.06,24.06 0,0 0,87.5 62.97A24.06,24.06 0,0 0,63.44 87.03A24.06,24.06 0,0 0,87.5 111.09A24.06,24.06 0,0 0,111.56 87.03" fill="none" stroke="#babdbb" stroke-width="2.00" stroke-linecap="butt"/>
  <path d="M101.47,87.03A13.97,13.97 0,0 0,87.5 73.06A13.97,13.97 0,0 0,73.53 87.03A13.97,13.97 0,0 0,87.5 101A13.97,13.97 0,0 0,101.47 87.03" fill="none" stroke="#929ca0" stroke-width="2.00" stroke-linecap="butt"/>
  <path d="M23.29,146.11C17.54,140.02 14.45,136.9 20.85,129.9Q25.77,124.52 30.64,119.28A0.71,0.7 51.4,0 0,30.73 118.45Q27.11,112.09 25.07,105.06Q24.93,104.58 24.44,104.56Q19,104.27 13.64,103.92C5.75,103.4 0.21,103.33 0.24,94.2Q0.27,87.08 0.24,79.98C0.23,73.51 3.38,70.47 9.95,70.41Q13.07,70.38 24.43,69.37Q24.99,69.32 25.15,68.78Q27.19,61.91 30.71,55.67Q30.98,55.18 30.6,54.77Q25.89,49.63 21.26,44.57C17.8,40.78 15.43,36.86 18.98,32.49Q21.33,29.59 30.9,20.58C35.23,16.51 39.07,15.91 43.49,19.95Q49.26,25.23 55.11,30.44A0.77,0.77 0,0 0,56 30.54Q62.37,27.01 69.35,24.98Q69.87,24.83 69.9,24.28C70.22,18.55 69.28,4.95 74.5,1.57C78.34,-0.93 89.88,0.25 94.72,0.27C100.6,0.29 103.7,2.8 104.15,8.57Q104.74,16.28 105.06,24.02A0.69,0.68 -79.7,0 0,105.47 24.62L119.35,30.39A0.77,0.76 -54.5,0 0,120.15 30.25Q125.29,25.54 130.57,20.8C134.5,17.26 138.91,15.42 143.03,19.46Q149.47,25.78 155.79,32.2C163.19,39.7 147.87,49.27 144.41,54.93A0.96,0.94 -44.4,0 0,144.39 55.89Q147.91,62.15 149.94,69.02Q150.07,69.46 150.52,69.48Q158.39,69.89 166.23,70.51C171.4,70.92 174.68,73.46 174.72,78.74Q174.79,86.61 174.74,94.46C174.7,99.51 172.5,103 167.36,103.45Q158.99,104.17 150.58,104.56Q150.1,104.58 149.96,105.04Q147.89,111.94 144.37,118.22A1.06,1.05 -52.2,0 0,144.52 119.46Q150.02,125.4 155.66,131.6C159.43,135.74 157.57,140.14 153.94,143.84Q145.38,152.58 142.51,155.01C137.98,158.85 133.78,156.24 129.83,152.6Q124.94,148.09 119.95,143.64Q119.52,143.26 119.02,143.54Q112.68,147.04 105.72,149.08Q105.18,149.24 105.14,149.81C104.73,155.57 105.75,168.97 100.62,172.46C96.99,174.92 84.95,173.75 80.28,173.75C74.08,173.76 71.26,171.08 70.85,165.13Q70.31,157.52 69.91,149.89A0.83,0.83 0,0 0,69.32 149.14Q62.36,147.06 55.98,143.54Q55.49,143.27 55.07,143.65Q49.98,148.21 45,152.76C41.02,156.4 37.12,158.73 32.51,154.99Q28.92,152.08 23.29,146.11ZM126.41,87.04A38.91,38.91 0,0 0,87.5 48.13A38.91,38.91 0,0 0,48.59 87.04A38.91,38.91 0,0 0,87.5 125.95A38.91,38.91 0,0 0,126.41 87.04Z" fill="#808a8f"/>
  <path d="M126.41,87.04A38.91,38.91 0,0 1,87.5 125.95A38.91,38.91 0,0 1,48.59 87.04A38.91,38.91 0,0 1,87.5 48.13A38.91,38.91 0,0 1,126.41 87.04ZM111.56,87.03A24.06,24.06 0,0 0,87.5 62.97A24.06,24.06 0,0 0,63.44 87.03A24.06,24.06 0,0 0,87.5 111.09A24.06,24.06 0,0 0,111.56 87.03Z" fill="#f4f0e6"/>
  <path d="M111.56,87.03A24.06,24.06 0,0 1,87.5 111.09A24.06,24.06 0,0 1,63.44 87.03A24.06,24.06 0,0 1,87.5 62.97A24.06,24.06 0,0 1,111.56 87.03ZM101.47,87.03A13.97,13.97 0,0 0,87.5 73.06A13.97,13.97 0,0 0,73.53 87.03A13.97,13.97 0,0 0,87.5 101A13.97,13.97 0,0 0,101.47 87.03Z" fill="#808a8f"/>
  <path d="M87.5,87.03m-13.97,0a13.97,13.97 0,1 1,27.94 0a13.97,13.97 0,1 1,-27.94 0" fill="#a4adb1"/>
</svg>
