<svg xmlns="http://www.w3.org/2000/svg" width="175" height="174" viewBox="0 0 175 174">
  <path d="M171.94,127.42C169.78,125.81 168.07,123.63 166.12,122.12Q144.4,105.36 122.6,88.7C121.81,88.11 121.1,86.44 119.94,87.36" fill="none" stroke="#d94b3e" stroke-width="2.00" stroke-linecap="butt"/>
  <path d="M119.94,87.36L70.56,55.5Q70.04,55.17 70.04,55.78L70.09,119.45" fill="none" stroke="#eaa195" stroke-width="2.00" stroke-linecap="butt"/>
  <path d="M70.09,119.45Q69.86,120.22 71.38,121.62Q84.85,134.06 98.57,146.22A1.33,1.32 -73.6,0 1,99 147.02Q99.13,147.97 99.75,148.88" fill="none" stroke="#d94b3e" stroke-width="2.00" stroke-linecap="butt"/>
  <path d="M119.94,87.36L70.09,119.45" fill="none" stroke="#e29b90" stroke-width="2.00" stroke-linecap="butt"/>
  <path d="M175,85.56L175,105.56Q174.46,116.73 171.94,127.42C169.78,125.81 168.07,123.63 166.12,122.12Q144.4,105.36 122.6,88.7C121.81,88.11 121.1,86.44 119.94,87.36L70.56,55.5Q70.04,55.17 70.04,55.78L70.09,119.45Q69.86,120.22 71.38,121.62Q84.85,134.06 98.57,146.22A1.33,1.32 -73.6,0 1,99 147.02Q99.13,147.97 99.75,148.88Q66.27,149.08 32.82,147.94Q26.64,147.73 20.49,147.06C3.25,145.18 0.42,118.61 0,105.68L0,86.2C0.31,70.45 0.3,37.16 14.32,29.67C19.68,26.8 30.47,26.76 36.31,26.61Q85.91,25.39 135.5,26.52Q145.81,26.76 156.04,28.13C175.23,30.7 174.7,72.01 175,85.56Z" fill="#e05043"/>
  <path d="M119.94,87.36L70.09,119.45L70.04,55.78Q70.04,55.17 70.56,55.5L119.94,87.36Z" fill="#f3f1e6"/>
  <path d="M119.94,87.36C121.1,86.44 121.81,88.11 122.6,88.7Q144.4,105.36 166.12,122.12C168.07,123.63 169.78,125.81 171.94,127.42Q170.8,132.65 167.66,138.17C162.5,147.26 154.11,147.64 145.51,148.03Q122.63,149.09 99.75,148.88Q99.13,147.97 99,147.02A1.33,1.32 -73.6,0 0,98.57 146.22Q84.85,134.06 71.38,121.62Q69.86,120.22 70.09,119.45L119.94,87.36Z" fill="#d14539"/>
</svg>
