<svg xmlns="http://www.w3.org/2000/svg" width="175" height="174" viewBox="0 0 175 174">
  <circle cx="87.5" cy="87" r="87" fill="#FCFCFC"></circle>
  <g transform="translate(87.5 87) scale(4.785) translate(-12 -12)" fill="none" stroke="#F2A11B" stroke-width="1.35" stroke-linecap="round" stroke-linejoin="round">
    <path d="m15.7 22.3 -4.2 1.2 1.2 -4.2 7.179 -7.179a2.121 2.121 0 0 1 3 3Z"></path>
    <path d="m18.979 13.022 3 3"></path>
    <path d="m12.7 19.301 3 3"></path>
    <path d="M9.5 18.5h-8a1 1 0 0 1 -1 -1v-14a1 1 0 0 1 1 -1h18a1 1 0 0 1 1 1v6"></path>
    <path d="m5.5 0.501 0 5"></path>
    <path d="m15.5 0.501 0 5"></path>
    <path d="m0.5 7.501 20 0"></path>
  </g>
</svg>




