<svg xmlns="http://www.w3.org/2000/svg" width="175" height="174" viewBox="0 0 175 174">
  <circle cx="87.5" cy="87" r="87" fill="#FCFCFC"></circle>
  <g transform="translate(87.5 87) scale(5.600625) translate(-12 -12)" fill="none" stroke="#EB3E33" stroke-linecap="round" stroke-linejoin="round" stroke-width="1.40">
    <path d="M20.661 21.7a1 1 0 0 1 -0.981 0.8H4.32a1 1 0 0 1 -0.981 -0.8L1.5 12.5h21Z"></path>
    <path d="M1.5 9.5h21s1 0 1 1v1s0 1 -1 1h-21s-1 0 -1 -1v-1s0 -1 1 -1"></path>
    <path d="m3.5 7.5 6 -6"></path>
    <path d="m20.5 7.5 -6 -6"></path>
    <path d="m13.5 14.5 0 5"></path>
    <path d="m17.5 14.5 0 5"></path>
    <path d="m10.5 14.5 0 5"></path>
    <path d="m6.5 14.5 0 5"></path>
  </g>
</svg>




