<svg xmlns="http://www.w3.org/2000/svg" width="175" height="174" viewBox="0 0 175 174">
  <circle cx="87.5" cy="87" r="87" fill="#FCFCFC"></circle>
  <g transform="translate(87.5 87) scale(4.35) translate(-12 -12)" fill="none" stroke="#27BED0" stroke-width="1.404" stroke-linecap="round" stroke-linejoin="round">
    <path d="m5.5 17.5 4 0"></path>
    <path d="m0.5 11.5 11 0"></path>
    <path d="M8.5 14.5V16A1.5 1.5 0 0 1 7 17.5"></path>
    <path d="M20.5 9.5v-8a1 1 0 0 0 -1 -1h-18a1 1 0 0 0 -1 1v12a1 1 0 0 0 1 1h8"></path>
    <path d="m19.09 15.14 3.04 1.36 1.37 -3.07"></path>
    <path d="M11.32 15.26a5.57 5.57 0 0 1 10.81 1.24"></path>
    <path d="m14.38 19.86 -3.04 -1.36 -1.37 3.07"></path>
    <path d="M22.15 19.73a5.57 5.57 0 0 1 -10.81 -1.23"></path>
  </g>
</svg>






