<?xml version="1.0" encoding="utf-8"?>
<!-- Generator: Adobe Illustrator 26.3.1, SVG Export Plug-In . SVG Version: 6.00 Build 0)  -->
<svg version="1.1" id="Layer_2" xmlns="http://www.w3.org/2000/svg" xmlns:xlink="http://www.w3.org/1999/xlink" x="0px" y="0px"
	 viewBox="0 0 128 128" style="enable-background:new 0 0 128 128;" xml:space="preserve">
<g>
	<rect x="94.16" y="16.35" style="fill:#CB8251;" width="6.23" height="95.4"/>
	<rect x="71.97" y="16.35" style="fill:#CB8251;" width="6.23" height="95.4"/>
	<rect x="49.78" y="16.35" style="fill:#CB8251;" width="6.23" height="95.4"/>
	<rect x="27.59" y="16.35" style="fill:#CB8251;" width="6.23" height="95.4"/>
</g>
<g>
	<g>
		<path style="fill:#E9462D;" d="M40.66,28.37c-2.69-4.64-6.82-6.77-6.82-6.77h-3.11h-3.11c0,0-4.13,2.13-6.82,6.77H40.66z"/>
		<path style="fill:#A42714;" d="M20.78,28.37c2.69,4.64,6.82,6.77,6.82,6.77h3.11h3.11c0,0,4.13-2.13,6.82-6.77H20.78z"/>
	</g>
	<g>
		<path style="fill:#E9462D;" d="M40.66,102.74c-2.69-4.64-6.82-6.77-6.82-6.77h-6.23c0,0-4.13,2.13-6.82,6.77H40.66z"/>
		<path style="fill:#A42714;" d="M20.78,102.74c2.69,4.64,6.82,6.77,6.82,6.77h6.23c0,0,4.13-2.13,6.82-6.77H20.78z"/>
	</g>
	<g>
		<path style="fill:#E9462D;" d="M40.66,89.21c-2.69-4.64-6.82-6.77-6.82-6.77h-6.23c0,0-4.13,2.13-6.82,6.77H40.66z"/>
		<path style="fill:#A42714;" d="M20.78,89.21c2.69,4.64,6.82,6.77,6.82,6.77h6.23c0,0,4.13-2.13,6.82-6.77H20.78z"/>
	</g>
	<g>
		<path style="fill:#E9462D;" d="M40.66,75.67c-2.69-4.64-6.82-6.77-6.82-6.77h-6.23c0,0-4.13,2.13-6.82,6.77H40.66z"/>
		<path style="fill:#A42714;" d="M20.78,75.67c2.69,4.64,6.82,6.77,6.82,6.77h6.23c0,0,4.13-2.13,6.82-6.77H20.78z"/>
	</g>
	<g>
		<path style="fill:#E9462D;" d="M62.85,93.53c-2.69-4.64-6.82-6.77-6.82-6.77h-6.23c0,0-4.13,2.13-6.82,6.77H62.85z"/>
		<path style="fill:#A42714;" d="M42.97,93.53c2.69,4.64,6.82,6.77,6.82,6.77h6.23c0,0,4.13-2.13,6.82-6.77H42.97z"/>
	</g>
	<g>
		<path style="fill:#E9462D;" d="M62.85,79.99c-2.69-4.64-6.82-6.77-6.82-6.77h-6.23c0,0-4.13,2.13-6.82,6.77H62.85z"/>
		<path style="fill:#A42714;" d="M42.97,79.99c2.69,4.64,6.82,6.77,6.82,6.77h6.23c0,0,4.13-2.13,6.82-6.77H42.97z"/>
	</g>
	<g>
		<path style="fill:#E9462D;" d="M62.85,66.46c-2.69-4.64-6.82-6.77-6.82-6.77h-6.23c0,0-4.13,2.13-6.82,6.77H62.85z"/>
		<path style="fill:#A42714;" d="M42.97,66.46c2.69,4.64,6.82,6.77,6.82,6.77h6.23c0,0,4.13-2.13,6.82-6.77H42.97z"/>
	</g>
	<g>
		<path style="fill:#E9462D;" d="M62.85,52.92c-2.69-4.64-6.82-6.77-6.82-6.77h-6.23c0,0-4.13,2.13-6.82,6.77H62.85z"/>
		<path style="fill:#A42714;" d="M42.97,52.92c2.69,4.64,6.82,6.77,6.82,6.77h6.23c0,0,4.13-2.13,6.82-6.77H42.97z"/>
	</g>
	<g>
		<path style="fill:#E9462D;" d="M85.03,93.53c-2.69-4.64-6.82-6.77-6.82-6.77h-6.23c0,0-4.13,2.13-6.82,6.77H85.03z"/>
		<path style="fill:#A42714;" d="M65.15,93.53c2.69,4.64,6.82,6.77,6.82,6.77h6.23c0,0,4.13-2.13,6.82-6.77H65.15z"/>
	</g>
	<g>
		<path style="fill:#E9462D;" d="M85.03,79.99c-2.69-4.64-6.82-6.77-6.82-6.77h-6.23c0,0-4.13,2.13-6.82,6.77H85.03z"/>
		<path style="fill:#A42714;" d="M65.15,79.99c2.69,4.64,6.82,6.77,6.82,6.77h6.23c0,0,4.13-2.13,6.82-6.77H65.15z"/>
	</g>
	<g>
		<path style="fill:#E9462D;" d="M85.03,66.46c-2.69-4.64-6.82-6.77-6.82-6.77h-6.23c0,0-4.13,2.13-6.82,6.77H85.03z"/>
		<path style="fill:#A42714;" d="M65.15,66.46c2.69,4.64,6.82,6.77,6.82,6.77h6.23c0,0,4.13-2.13,6.82-6.77H65.15z"/>
	</g>
	<g>
		<path style="fill:#E9462D;" d="M85.03,52.92c-2.69-4.64-6.82-6.77-6.82-6.77h-6.23c0,0-4.13,2.13-6.82,6.77H85.03z"/>
		<path style="fill:#A42714;" d="M65.15,52.92c2.69,4.64,6.82,6.77,6.82,6.77h6.23c0,0,4.13-2.13,6.82-6.77H65.15z"/>
	</g>
	<g>
		<path style="fill:#E9462D;" d="M62.85,33.15c-2.69-4.64-6.82-6.77-6.82-6.77h-6.23c0,0-4.13,2.13-6.82,6.77H62.85z"/>
		<path style="fill:#A42714;" d="M42.97,33.15c2.69,4.64,6.82,6.77,6.82,6.77h6.23c0,0,4.13-2.13,6.82-6.77H42.97z"/>
	</g>
	<g>
		<path style="fill:#E9462D;" d="M85.03,33.15c-2.69-4.64-6.82-6.77-6.82-6.77h-6.23c0,0-4.13,2.13-6.82,6.77H85.03z"/>
		<path style="fill:#A42714;" d="M65.15,33.15c2.69,4.64,6.82,6.77,6.82,6.77h6.23c0,0,4.13-2.13,6.82-6.77H65.15z"/>
	</g>
	<g>
		<path style="fill:#E9462D;" d="M107.22,33.15c-2.69-4.64-6.82-6.77-6.82-6.77h-6.23c0,0-4.13,2.13-6.82,6.77H107.22z"/>
		<path style="fill:#A42714;" d="M87.34,33.15c2.69,4.64,6.82,6.77,6.82,6.77h6.23c0,0,4.13-2.13,6.82-6.77H87.34z"/>
	</g>
	<g>
		<path style="fill:#E9462D;" d="M40.66,52.92c-2.69-4.64-6.82-6.77-6.82-6.77h-6.23c0,0-4.13,2.13-6.82,6.77H40.66z"/>
		<path style="fill:#A42714;" d="M20.78,52.92c2.69,4.64,6.82,6.77,6.82,6.77h3.11h3.11c0,0,4.13-2.13,6.82-6.77H20.78z"/>
	</g>
	<g>
		<path style="fill:#E9462D;" d="M107.22,102.74c-2.69-4.64-6.82-6.77-6.82-6.77h-6.23c0,0-4.13,2.13-6.82,6.77H107.22z"/>
		<path style="fill:#A42714;" d="M87.34,102.74c2.69,4.64,6.82,6.77,6.82,6.77h6.23c0,0,4.13-2.13,6.82-6.77H87.34z"/>
	</g>
	<g>
		<path style="fill:#E9462D;" d="M107.22,79.99c-2.69-4.64-6.82-6.77-6.82-6.77h-6.23c0,0-4.13,2.13-6.82,6.77H107.22z"/>
		<path style="fill:#A42714;" d="M87.34,79.99c2.69,4.64,6.82,6.77,6.82,6.77h6.23c0,0,4.13-2.13,6.82-6.77H87.34z"/>
	</g>
	<g>
		<path style="fill:#E9462D;" d="M107.22,66.46c-2.69-4.64-6.82-6.77-6.82-6.77h-6.23c0,0-4.13,2.13-6.82,6.77H107.22z"/>
		<path style="fill:#A42714;" d="M87.34,66.46c2.69,4.64,6.82,6.77,6.82,6.77h6.23c0,0,4.13-2.13,6.82-6.77H87.34z"/>
	</g>
	<g>
		<path style="fill:#E9462D;" d="M107.22,52.92c-2.69-4.64-6.82-6.77-6.82-6.77h-6.23c0,0-4.13,2.13-6.82,6.77H107.22z"/>
		<path style="fill:#A42714;" d="M87.34,52.92c2.69,4.64,6.82,6.77,6.82,6.77h3.12h3.11c0,0,4.13-2.13,6.82-6.77H87.34z"/>
	</g>
</g>
<path style="fill:#774439;" d="M8.42,8.42v111.16h111.16V8.42H8.42z M108.78,109.51H19.22c-0.41,0-0.74-0.33-0.74-0.74V19.22
	c0-0.41,0.33-0.74,0.74-0.74h89.55c0.41,0,0.74,0.33,0.74,0.74v89.55C109.51,109.18,109.18,109.51,108.78,109.51z"/>
<path style="fill:#CB8251;" d="M4,9.64v108.71c0,3.12,2.53,5.64,5.64,5.64h108.71c3.12,0,5.64-2.53,5.64-5.64V9.64
	c0-3.12-2.53-5.64-5.64-5.64H9.64C6.53,4,4,6.53,4,9.64z M111.99,114.11H16.01c-1.17,0-2.13-0.95-2.13-2.13V16.01
	c0-1.17,0.95-2.13,2.13-2.13h95.98c1.17,0,2.13,0.95,2.13,2.13v95.98C114.11,113.16,113.16,114.11,111.99,114.11z"/>
<path style="fill:#9B6253;" d="M115.45,7.21H12.55c-2.95,0-5.34,2.39-5.34,5.34v102.89c0,2.95,2.39,5.34,5.34,5.34h102.89
	c2.95,0,5.34-2.39,5.34-5.34V12.55C120.79,9.6,118.4,7.21,115.45,7.21z M114.11,111.99c0,1.17-0.95,2.13-2.13,2.13H16.01
	c-1.17,0-2.13-0.95-2.13-2.13V16.01c0-1.17,0.95-2.13,2.13-2.13h95.98c1.17,0,2.13,0.95,2.13,2.13V111.99z"/>
<g>
	<path style="fill:#774439;" d="M15.6,13.94l-4.98-6.35C9.21,8.13,8.1,9.26,7.57,10.67l6.35,4.98
		C14.08,14.79,14.74,14.11,15.6,13.94z"/>
	<path style="fill:#774439;" d="M120.43,117.33l-6.35-4.97c-0.15,0.86-0.82,1.54-1.68,1.71l4.97,6.34
		C118.78,119.87,119.89,118.75,120.43,117.33z"/>
	<path style="fill:#774439;" d="M114.08,15.65l6.35-4.97c-0.53-1.42-1.64-2.54-3.05-3.09l-4.98,6.35
		C113.26,14.11,113.93,14.79,114.08,15.65z"/>
	<path style="fill:none;" d="M115.45,7.21H12.55c-2.95,0-5.34,2.39-5.34,5.34v102.89c0,2.95,2.39,5.34,5.34,5.34h102.89
		c2.95,0,5.34-2.39,5.34-5.34V12.55C120.79,9.6,118.4,7.21,115.45,7.21z"/>
	<path style="fill:none;" d="M115.45,7.21H12.55c-2.95,0-5.34,2.39-5.34,5.34v102.89c0,2.95,2.39,5.34,5.34,5.34h102.89
		c2.95,0,5.34-2.39,5.34-5.34V12.55C120.79,9.6,118.4,7.21,115.45,7.21z"/>
	<g>
		<path style="fill:#774439;" d="M13.92,112.36l-6.35,4.98c0.54,1.41,1.65,2.54,3.06,3.08l4.97-6.34
			C14.74,113.9,14.08,113.22,13.92,112.36z"/>
	</g>
</g>
<path style="fill:#774439;" d="M15.66,43.04L15.66,43.04c0-1.72,1.39-3.12,3.11-3.12h90.44c1.72,0,3.11,1.39,3.11,3.11v0
	c0,1.72-1.39,3.11-3.11,3.11H18.78C17.06,46.15,15.66,44.76,15.66,43.04z"/>
</svg>
