<svg xmlns="http://www.w3.org/2000/svg" width="175" height="174" viewBox="0 0 175 174">
  <path d="M61.48,65.09A10.37,10.37 0,0 0,51.11 54.72A10.37,10.37 0,0 0,40.74 65.09A10.37,10.37 0,0 0,51.11 75.46A10.37,10.37 0,0 0,61.48 65.09" fill="none" stroke="#d3ecb2" stroke-width="2.00" stroke-linecap="butt"/>
  <path d="M133.89,65.09A10.38,10.38 0,0 0,123.51 54.71A10.38,10.38 0,0 0,113.13 65.09A10.38,10.38 0,0 0,123.51 75.47A10.38,10.38 0,0 0,133.89 65.09" fill="none" stroke="#d3ecb2" stroke-width="2.00" stroke-linecap="butt"/>
  <path d="M175,100.57L175,101.72L0,101.73L0,98.72Q2.41,56.78 35.44,31.88Q35.88,31.55 35.5,31.16Q27.19,22.73 18.9,14.54Q16.27,11.94 15.65,9.76C14.18,4.59 18.02,0.69 23.16,0.85Q27.14,0.97 30.2,4.03Q39.3,13.16 48.37,22.27Q48.75,22.65 49.23,22.41C72.86,10.64 102.05,12.1 125.85,22.33A0.5,0.49 -55,0 0,126.39 22.23Q135.78,12.86 145.2,3.42C152.69,-4.08 165.29,5.1 155.91,14.24Q147.32,22.6 139,31.22Q138.61,31.62 139.07,31.95Q162.59,48.9 170.68,76.71Q173.8,87.42 173.98,91.25Q174.2,95.88 175,100.57ZM61.48,65.09A10.37,10.37 0,0 0,51.11 54.72A10.37,10.37 0,0 0,40.74 65.09A10.37,10.37 0,0 0,51.11 75.46A10.37,10.37 0,0 0,61.48 65.09ZM133.89,65.09A10.38,10.38 0,0 0,123.51 54.71A10.38,10.38 0,0 0,113.13 65.09A10.38,10.38 0,0 0,123.51 75.47A10.38,10.38 0,0 0,133.89 65.09Z" fill="#a6d864"/>
  <path d="M51.11,65.09m-10.37,0a10.37,10.37 0,1 1,20.74 0a10.37,10.37 0,1 1,-20.74 0" fill="#ffffff"/>
  <path d="M123.51,65.09m-10.38,0a10.38,10.38 0,1 1,20.76 0a10.38,10.38 0,1 1,-20.76 0" fill="#ffffff"/>
  <path d="M175,111L175,162.78Q173.12,172.53 163.44,174L9.03,174Q1.4,170.34 0,162.97L0,111.01L175,111Z" fill="#a6d864"/>
</svg>
