<svg xmlns="http://www.w3.org/2000/svg" width="175" height="174" viewBox="0 0 175 174">
  <path d="M0,83.23L0,11.23C0.57,4.38 4.52,0.98 11.24,0.99Q47.15,1.01 82.98,1A0.52,0.52 0,0 1,83.5 1.52L83.5,82.73A0.51,0.51 0,0 1,82.99 83.24L0,83.23Z" fill="#849aa5"/>
  <path d="M175,11.09L175,83.22L91.82,83.22A0.32,0.32 0,0 1,91.5 82.9L91.5,1.52A0.52,0.52 0,0 1,92.02 1Q127.75,1.01 163.72,0.99C170.41,0.99 174.4,4.27 175,11.09Z" fill="#4c5f65"/>
  <path d="M83.48,174L10.71,174Q0.85,172.9 0,163.19L0,91.28L83.06,91.28A0.43,0.43 0,0 1,83.49 91.71L83.48,174Z" fill="#6c8794"/>
  <path d="M175,91.27L175,163.56Q173.89,172.89 164.43,174L91.53,174L91.53,91.69A0.43,0.43 0,0 1,91.96 91.26L175,91.27Z" fill="#61747a"/>
</svg>
