<svg xmlns="http://www.w3.org/2000/svg" width="175" height="174" viewBox="0 0 175 174">
  <path d="M82.53,1.65L133.03,52.16A0.31,0.31 0,0 1,133.03 52.6L98.58,87.02A0.31,0.31 0,0 0,98.58 87.46L132.9,121.78A0.31,0.31 0,0 1,132.9 122.22L82.53,172.61A0.31,0.31 0,0 1,82 172.39L82,104.34A0.31,0.31 0,0 0,81.47 104.12L50.6,135.04A0.31,0.31 0,0 1,50.16 135.04L40.09,124.96A0.31,0.31 0,0 1,40.09 124.52L77.16,87.47A0.31,0.31 0,0 0,77.16 87.03L40.1,49.98A0.31,0.31 0,0 1,40.1 49.54L50.14,39.46A0.31,0.31 0,0 1,50.58 39.46L81.47,70.34A0.31,0.31 0,0 0,82 70.12L82,1.87A0.31,0.31 0,0 1,82.53 1.65ZM96.37,68.25L111.81,52.81A0.62,0.62 0,0 0,111.81 51.93L96.44,36.56A0.27,0.26 -67.9,0 0,95.99 36.75L95.98,68.09Q95.98,68.65 96.37,68.25ZM111.94,121.82L96.45,106.29Q95.98,105.82 95.98,106.49L95.98,137.72Q95.98,138.2 96.32,137.86L111.94,122.2A0.27,0.27 0,0 0,111.94 121.82Z" fill="#2980b9"/>
</svg>
