<svg xmlns="http://www.w3.org/2000/svg" width="175" height="174" viewBox="0 0 175 174">
  <path d="M81.24,0.98L76,6.83A0.77,0.76 56.4,0 0,75.85 7.61L76.52,9.38Q76.79,10.09 76.03,10.18L71.06,10.74" fill="none" stroke="#1eaf68" stroke-width="2.00" stroke-linecap="butt"/>
  <path d="M71.06,10.74Q67.56,7.97 64.39,3.62" fill="none" stroke="#23bf7b" stroke-width="2.00" stroke-linecap="butt"/>
  <path d="M83.67,1.15L77.73,7.85A1.06,1.04 61.1,0 0,77.49 8.71L77.79,10.58A0.74,0.74 0,0 1,77.16 11.43L72.77,12.02Q72.28,12.08 72.29,11.58Q72.32,10.34 71.06,10.74" fill="none" stroke="#416eca" stroke-width="2.00" stroke-linecap="butt"/>
  <path d="M126.38,9.79L129.26,18.37A1.66,1.63 44.4,0 1,129.28 19.31L128.06,23.75Q127.75,24.9 128.93,24.95L136.79,25.31A0.73,0.73 0,0 0,137.54 24.71L138.83,17.35" fill="none" stroke="#23bf7b" stroke-width="2.00" stroke-linecap="butt"/>
  <path d="M144.06,21.41L138.13,26.61Q137.68,27 137.09,27L130.5,27A0.44,0.43 -23.2,0 0,130.2 27.75C131.65,29.12 133.78,30.34 134.43,32.01Q135.18,33.96 133.86,35.74Q133.56,36.14 133.05,36.16L124.06,36.5A0.7,0.7 0,0 0,123.39 37.12L122.77,42.7Q122.72,43.13 122.94,43.5Q125.67,48.13 130.9,48.38Q131.46,48.4 131.77,47.93L136.34,40.95A1.01,1.01 0,0 1,137.18 40.5L139.75,40.5Q140.5,40.5 140.5,39.75L140.5,37.48A1.04,1.03 -88.2,0 1,141.6 36.44C144.78,36.62 147.66,36.28 150.55,37.84Q157.22,41.46 163.91,45.84" fill="none" stroke="#23bf7b" stroke-width="2.00" stroke-linecap="butt"/>
  <path d="M165.49,48.78Q163.42,49.87 162.84,53.86A1.38,1.37 13.2,0 1,161.04 54.97L150.5,51.49A1.57,1.57 0,0 1,149.5 49.49L150.49,46.54Q150.7,45.92 150.04,45.9L139.26,45.7Q138.66,45.69 138.18,46.06C135.87,47.88 133.37,50.5 130.4,51.03C126.15,51.78 121.28,51.59 122.26,57.77Q122.34,58.32 121.86,58.58Q117.34,61.04 114.97,65.46C112.73,69.64 113.75,77.47 113.75,82.28Q113.75,82.79 114.12,83.15Q119.9,88.82 122.56,96.53Q122.72,96.97 123.13,97.2Q123.84,97.59 124.43,97.48" fill="none" stroke="#23bf7b" stroke-width="2.00" stroke-linecap="butt"/>
  <path d="M124.43,97.48Q128.66,97.08 132.17,97.96Q132.63,98.07 133.03,97.83L140.57,93.22" fill="none" stroke="#416eca" stroke-width="2.00" stroke-linecap="butt"/>
  <path d="M140.57,93.22L143.93,98.16Q144.16,98.5 144.58,98.5L148.76,98.5A0.71,0.71 0,0 1,149.47 99.2L149.52,105.5Q149.52,106.05 149.84,106.5L151.73,109.2A1.53,1.48 -63.1,0 1,151.99 110.05C152.02,116.05 152.7,121.98 150.63,127.72Q150.47,128.17 150.7,128.58L157.31,140.2" fill="none" stroke="#23bf7b" stroke-width="2.00" stroke-linecap="butt"/>
  <path d="M54.28,168.65L73.86,147.08Q74.25,146.65 74.25,146.08L74.25,142.8Q74.25,142.37 74.61,142.13C80.59,138.04 85.46,136.63 85.69,128.13Q85.7,127.63 85.97,127.21C89.8,121.33 91.86,119.53 90.76,111.86Q90.7,111.45 90.31,111.3L89.52,110.99" fill="none" stroke="#416eca" stroke-width="2.00" stroke-linecap="butt"/>
  <path d="M89.52,110.99C89.61,110.2 74.09,105.8 72.35,105.26Q71.82,105.1 71.54,104.61L66.74,96.24Q66.5,95.82 66.04,95.69L59.28,93.81Q58.73,93.66 58.33,93.23L52.19,86.64Q51.87,86.3 51.41,86.29Q47.39,86.21 43.38,86.05C40.11,85.92 37.34,87.78 34.49,89.09Q34.04,89.29 33.57,89.15L28.33,87.52" fill="none" stroke="#23bf7b" stroke-width="2.00" stroke-linecap="butt"/>
  <path d="M28.33,87.52C28.46,86.44 29.82,79.12 27.32,80.65" fill="none" stroke="#416eca" stroke-width="2.00" stroke-linecap="butt"/>
  <path d="M27.32,80.65C27.22,79.15 22.6,79.16 21.17,78.77" fill="none" stroke="#23bf7b" stroke-width="2.00" stroke-linecap="butt"/>
  <path d="M21.17,78.77C21.64,78.05 24.14,73.2 21.67,73.45" fill="none" stroke="#416eca" stroke-width="2.00" stroke-linecap="butt"/>
  <path d="M21.67,73.45L21.44,73.13Q21.19,72.8 20.79,72.77C18.74,72.58 15.84,71.31 15.09,74.16A0.86,0.85 1,0 1,14.43 74.79Q11.45,75.42 9.4,72.54" fill="none" stroke="#23bf7b" stroke-width="2.00" stroke-linecap="butt"/>
  <path d="M9.4,72.54L9.19,63.61A2.81,2.8 -86.8,0 1,12.37 60.77C14.84,61.09 16.72,61.17 19.21,60.16Q21.69,59.15 24.75,58.44" fill="none" stroke="#416eca" stroke-width="2.00" stroke-linecap="butt"/>
  <path d="M24.75,58.44Q26.6,62.54 29.12,65.06" fill="none" stroke="#23bf7b" stroke-width="2.00" stroke-linecap="butt"/>
  <path d="M29.12,65.06Q31.3,66.63 32.14,65.33C33.02,63.96 31.9,58.93 31.55,57.36A2.22,2.21 59.3,0 1,32.04 55.43C34.89,52.15 39.32,49.25 38.35,44.51A0.73,0.72 -22.1,0 1,38.68 43.74L40.71,42.48Q41.14,42.21 41.07,41.71Q40.75,39.5 41.41,37.42Q41.57,36.91 42.08,36.77Q44.2,36.17 45.84,34.71" fill="none" stroke="#416eca" stroke-width="2.00" stroke-linecap="butt"/>
  <path d="M45.84,34.71Q47.06,36.26 47.91,36.19" fill="none" stroke="#23bf7b" stroke-width="2.00" stroke-linecap="butt"/>
  <path d="M47.91,36.19Q53.27,40.27 57.19,34.83A0.82,0.82 0,0 0,56.75 33.56L55.94,33.34" fill="none" stroke="#416eca" stroke-width="2.00" stroke-linecap="butt"/>
  <path d="M55.94,33.34Q55.5,32.28 53.64,30.87" fill="none" stroke="#23bf7b" stroke-width="2.00" stroke-linecap="butt"/>
  <path d="M53.64,30.87Q57,25.77 62.94,25.19Q63.42,25.14 63.4,24.65Q63.25,21.07 60.83,19.79" fill="none" stroke="#416eca" stroke-width="2.00" stroke-linecap="butt"/>
  <path d="M60.83,19.79C59.76,17.46 56.97,16.26 54.88,14.97A1.46,1.44 6.2,0 1,54.3 14.26L52,7.97" fill="none" stroke="#23bf7b" stroke-width="2.00" stroke-linecap="butt"/>
  <path d="M60.83,19.79L62.07,22.84A0.77,0.77 0,0 1,61.39 23.9Q56.51,24.1 53.57,27.85A1.07,1.06 -70.6,0 1,52.74 28.25L47.8,28.25A0.62,0.62 0,0 0,47.18 28.94C47.28,29.91 52.42,30.1 53.64,30.87" fill="none" stroke="#1eaf68" stroke-width="2.00" stroke-linecap="butt"/>
  <path d="M55.94,33.34Q53.49,37.27 47.91,36.19" fill="none" stroke="#1eaf68" stroke-width="2.00" stroke-linecap="butt"/>
  <path d="M45.84,34.71C44.68,33.15 41.06,35.04 39.73,35.98Q39.25,36.32 39.25,36.92L39.25,40.93Q39.25,41.35 38.88,41.54L37.15,42.45A0.76,0.75 76.4,0 0,36.75 43.12L36.75,46.79A1.36,1.32 -24.3,0 1,36.39 47.7L30.04,54.45A1.68,1.68 0,0 0,29.61 55.88L30.83,63.26A0.95,0.94 -21.7,0 1,30.42 64.2L29.12,65.06" fill="none" stroke="#1eaf68" stroke-width="2.00" stroke-linecap="butt"/>
  <path d="M24.75,58.44Q19.32,57.36 15.97,59.74Q15.55,60.04 15.04,59.95C12,59.41 9.58,58.85 7.71,61.39Q7.42,61.78 7.44,62.28Q7.64,66.8 7.68,71.31Q7.68,72.3 9.4,72.54" fill="none" stroke="#1eaf68" stroke-width="2.00" stroke-linecap="butt"/>
  <path d="M21.67,73.45Q18.18,78.55 21.17,78.77" fill="none" stroke="#1eaf68" stroke-width="2.00" stroke-linecap="butt"/>
  <path d="M27.32,80.65Q25.52,87.04 28.33,87.52" fill="none" stroke="#1eaf68" stroke-width="2.00" stroke-linecap="butt"/>
  <path d="M89.52,110.99L89.51,118.36A1.67,1.64 -28.6,0 1,89.23 119.28Q87.37,122.09 85.44,124.85C83.58,127.52 83.62,131.09 82.73,134.23A1.42,1.42 0,0 1,82.17 135.01Q77.57,138.16 72.98,141.33Q72.55,141.62 72.54,142.14L72.48,145.86A1.23,1.21 67.5,0 1,72.15 146.67L52.4,167.96" fill="none" stroke="#1eaf68" stroke-width="2.00" stroke-linecap="butt"/>
  <path d="M40.27,161.41L42.75,133.67Q42.79,133.21 42.42,132.93L34.98,127.27Q34.51,126.91 34.35,126.33Q32.68,120.3 29.77,114.77C28.16,111.7 28.72,108.16 28.76,104.84Q28.77,104.24 29.16,103.8L32.66,99.88A1.37,1.33 66.5,0 0,33 98.98L33,93.62Q33,92.96 32.43,92.62Q30.89,91.7 29.02,92.08Q28.58,92.17 28.18,91.96L21.3,88.38Q20.81,88.13 20.8,87.58L20.73,84.53Q20.72,84.03 20.31,83.74L13.98,79.21Q13.48,78.85 12.88,78.91Q6.7,79.49 0.46,79.01" fill="none" stroke="#23bf7b" stroke-width="2.00" stroke-linecap="butt"/>
  <path d="M140.57,93.22C136.54,93.04 134.74,94.77 131.65,96.98Q131.24,97.27 130.75,97.28L124.43,97.48" fill="none" stroke="#1eaf68" stroke-width="2.00" stroke-linecap="butt"/>
  <path d="M81.24,0.98L76,6.83A0.77,0.76 56.4,0 0,75.85 7.61L76.52,9.38Q76.79,10.09 76.03,10.18L71.06,10.74Q67.56,7.97 64.39,3.62Q72.57,1.16 81.24,0.98Z" fill="#00ff18"/>
  <path d="M81.24,0.98L83.67,1.15L77.73,7.85A1.06,1.04 61.1,0 0,77.49 8.71L77.79,10.58A0.74,0.74 0,0 1,77.16 11.43L72.77,12.02Q72.28,12.08 72.29,11.58Q72.32,10.34 71.06,10.74L76.03,10.18Q76.79,10.09 76.52,9.38L75.85,7.61A0.77,0.76 56.4,0 1,76 6.83L81.24,0.98Z" fill="#3c5eb7"/>
  <path d="M83.67,1.15Q105.87,-0.56 126.38,9.79L129.26,18.37A1.66,1.63 44.4,0 1,129.28 19.31L128.06,23.75Q127.75,24.9 128.93,24.95L136.79,25.31A0.73,0.73 0,0 0,137.54 24.71L138.83,17.35L144.06,21.41L138.13,26.61Q137.68,27 137.09,27L130.5,27A0.44,0.43 -23.2,0 0,130.2 27.75C131.65,29.12 133.78,30.34 134.43,32.01Q135.18,33.96 133.86,35.74Q133.56,36.14 133.05,36.16L124.06,36.5A0.7,0.7 0,0 0,123.39 37.12L122.77,42.7Q122.72,43.13 122.94,43.5Q125.67,48.13 130.9,48.38Q131.46,48.4 131.77,47.93L136.34,40.95A1.01,1.01 0,0 1,137.18 40.5L139.75,40.5Q140.5,40.5 140.5,39.75L140.5,37.48A1.04,1.03 -88.2,0 1,141.6 36.44C144.78,36.62 147.66,36.28 150.55,37.84Q157.22,41.46 163.91,45.84L165.49,48.78Q163.42,49.87 162.84,53.86A1.38,1.37 13.2,0 1,161.04 54.97L150.5,51.49A1.57,1.57 0,0 1,149.5 49.49L150.49,46.54Q150.7,45.92 150.04,45.9L139.26,45.7Q138.66,45.69 138.18,46.06C135.87,47.88 133.37,50.5 130.4,51.03C126.15,51.78 121.28,51.59 122.26,57.77Q122.34,58.32 121.86,58.58Q117.34,61.04 114.97,65.46C112.73,69.64 113.75,77.47 113.75,82.28Q113.75,82.79 114.12,83.15Q119.9,88.82 122.56,96.53Q122.72,96.97 123.13,97.2Q123.84,97.59 124.43,97.48Q128.66,97.08 132.17,97.96Q132.63,98.07 133.03,97.83L140.57,93.22L143.93,98.16Q144.16,98.5 144.58,98.5L148.76,98.5A0.71,0.71 0,0 1,149.47 99.2L149.52,105.5Q149.52,106.05 149.84,106.5L151.73,109.2A1.53,1.48 -63.1,0 1,151.99 110.05C152.02,116.05 152.7,121.98 150.63,127.72Q150.47,128.17 150.7,128.58L157.31,140.2Q136.24,167.78 101.7,174L72.72,174Q63.65,172.46 54.28,168.65L73.86,147.08Q74.25,146.65 74.25,146.08L74.25,142.8Q74.25,142.37 74.61,142.13C80.59,138.04 85.46,136.63 85.69,128.13Q85.7,127.63 85.97,127.21C89.8,121.33 91.86,119.53 90.76,111.86Q90.7,111.45 90.31,111.3L89.52,110.99C89.61,110.2 74.09,105.8 72.35,105.26Q71.82,105.1 71.54,104.61L66.74,96.24Q66.5,95.82 66.04,95.69L59.28,93.81Q58.73,93.66 58.33,93.23L52.19,86.64Q51.87,86.3 51.41,86.29Q47.39,86.21 43.38,86.05C40.11,85.92 37.34,87.78 34.49,89.09Q34.04,89.29 33.57,89.15L28.33,87.52C28.46,86.44 29.82,79.12 27.32,80.65C27.22,79.15 22.6,79.16 21.17,78.77C21.64,78.05 24.14,73.2 21.67,73.45L21.44,73.13Q21.19,72.8 20.79,72.77C18.74,72.58 15.84,71.31 15.09,74.16A0.86,0.85 1,0 1,14.43 74.79Q11.45,75.42 9.4,72.54L9.19,63.61A2.81,2.8 -86.8,0 1,12.37 60.77C14.84,61.09 16.72,61.17 19.21,60.16Q21.69,59.15 24.75,58.44Q26.6,62.54 29.12,65.06Q31.3,66.63 32.14,65.33C33.02,63.96 31.9,58.93 31.55,57.36A2.22,2.21 59.3,0 1,32.04 55.43C34.89,52.15 39.32,49.25 38.35,44.51A0.73,0.72 -22.1,0 1,38.68 43.74L40.71,42.48Q41.14,42.21 41.07,41.71Q40.75,39.5 41.41,37.42Q41.57,36.91 42.08,36.77Q44.2,36.17 45.84,34.71Q47.06,36.26 47.91,36.19Q53.27,40.27 57.19,34.83A0.82,0.82 0,0 0,56.75 33.56L55.94,33.34Q55.5,32.28 53.64,30.87Q57,25.77 62.94,25.19Q63.42,25.14 63.4,24.65Q63.25,21.07 60.83,19.79C59.76,17.46 56.97,16.26 54.88,14.97A1.46,1.44 6.2,0 1,54.3 14.26L52,7.97L64.39,3.62Q67.56,7.97 71.06,10.74Q72.32,10.34 72.29,11.58Q72.28,12.08 72.77,12.02L77.16,11.43A0.74,0.74 0,0 0,77.79 10.58L77.49,8.71A1.06,1.04 61.1,0 1,77.73 7.85L83.67,1.15Z" fill="#457edd"/>
  <path d="M52,7.97L54.3,14.26A1.46,1.44 6.2,0 0,54.88 14.97C56.97,16.26 59.76,17.46 60.83,19.79L62.07,22.84A0.77,0.77 0,0 1,61.39 23.9Q56.51,24.1 53.57,27.85A1.07,1.06 -70.6,0 1,52.74 28.25L47.8,28.25A0.62,0.62 0,0 0,47.18 28.94C47.28,29.91 52.42,30.1 53.64,30.87Q55.5,32.28 55.94,33.34Q53.49,37.27 47.91,36.19Q47.06,36.26 45.84,34.71C44.68,33.15 41.06,35.04 39.73,35.98Q39.25,36.32 39.25,36.92L39.25,40.93Q39.25,41.35 38.88,41.54L37.15,42.45A0.76,0.75 76.4,0 0,36.75 43.12L36.75,46.79A1.36,1.32 -24.3,0 1,36.39 47.7L30.04,54.45A1.68,1.68 0,0 0,29.61 55.88L30.83,63.26A0.95,0.94 -21.7,0 1,30.42 64.2L29.12,65.06Q26.6,62.54 24.75,58.44Q19.32,57.36 15.97,59.74Q15.55,60.04 15.04,59.95C12,59.41 9.58,58.85 7.71,61.39Q7.42,61.78 7.44,62.28Q7.64,66.8 7.68,71.31Q7.68,72.3 9.4,72.54Q11.45,75.42 14.43,74.79A0.86,0.85 1,0 0,15.09 74.16C15.84,71.31 18.74,72.58 20.79,72.77Q21.19,72.8 21.44,73.13L21.67,73.45Q18.18,78.55 21.17,78.77C22.6,79.16 27.22,79.15 27.32,80.65Q25.52,87.04 28.33,87.52L33.57,89.15Q34.04,89.29 34.49,89.09C37.34,87.78 40.11,85.92 43.38,86.05Q47.39,86.21 51.41,86.29Q51.87,86.3 52.19,86.64L58.33,93.23Q58.73,93.66 59.28,93.81L66.04,95.69Q66.5,95.82 66.74,96.24L71.54,104.61Q71.82,105.1 72.35,105.26C74.09,105.8 89.61,110.2 89.52,110.99L89.51,118.36A1.67,1.64 -28.6,0 1,89.23 119.28Q87.37,122.09 85.44,124.85C83.58,127.52 83.62,131.09 82.73,134.23A1.42,1.42 0,0 1,82.17 135.01Q77.57,138.16 72.98,141.33Q72.55,141.62 72.54,142.14L72.48,145.86A1.23,1.21 67.5,0 1,72.15 146.67L52.4,167.96Q45.67,164.99 40.27,161.41L42.75,133.67Q42.79,133.21 42.42,132.93L34.98,127.27Q34.51,126.91 34.35,126.33Q32.68,120.3 29.77,114.77C28.16,111.7 28.72,108.16 28.76,104.84Q28.77,104.24 29.16,103.8L32.66,99.88A1.37,1.33 66.5,0 0,33 98.98L33,93.62Q33,92.96 32.43,92.62Q30.89,91.7 29.02,92.08Q28.58,92.17 28.18,91.96L21.3,88.38Q20.81,88.13 20.8,87.58L20.73,84.53Q20.72,84.03 20.31,83.74L13.98,79.21Q13.48,78.85 12.88,78.91Q6.7,79.49 0.46,79.01C3.67,47.62 23.23,20.81 52,7.97Z" fill="#00ff18"/>
  <path d="M126.38,9.79Q133.43,13.04 138.83,17.35L137.54,24.71A0.73,0.73 0,0 1,136.79 25.31L128.93,24.95Q127.75,24.9 128.06,23.75L129.28,19.31A1.66,1.63 44.4,0 0,129.26 18.37L126.38,9.79Z" fill="#00ff18"/>
  <path d="M53.64,30.87C52.42,30.1 47.28,29.91 47.18,28.94A0.62,0.62 0,0 1,47.8 28.25L52.74,28.25A1.07,1.06 -70.6,0 0,53.57 27.85Q56.51,24.1 61.39,23.9A0.77,0.77 0,0 0,62.07 22.84L60.83,19.79Q63.25,21.07 63.4,24.65Q63.42,25.14 62.94,25.19Q57,25.77 53.64,30.87Z" fill="#3c5eb7"/>
  <path d="M144.06,21.41Q156.26,31.61 163.91,45.84Q157.22,41.46 150.55,37.84C147.66,36.28 144.78,36.62 141.6,36.44A1.04,1.03 -88.2,0 0,140.5 37.48L140.5,39.75Q140.5,40.5 139.75,40.5L137.18,40.5A1.01,1.01 0,0 0,136.34 40.95L131.77,47.93Q131.46,48.4 130.9,48.38Q125.67,48.13 122.94,43.5Q122.72,43.13 122.77,42.7L123.39,37.12A0.7,0.7 0,0 1,124.06 36.5L133.05,36.16Q133.56,36.14 133.86,35.74Q135.18,33.96 134.43,32.01C133.78,30.34 131.65,29.12 130.2,27.75A0.44,0.43 -23.2,0 1,130.5 27L137.09,27Q137.68,27 138.13,26.61L144.06,21.41Z" fill="#00ff18"/>
  <path d="M55.94,33.34L56.75,33.56A0.82,0.82 0,0 1,57.19 34.83Q53.27,40.27 47.91,36.19Q53.49,37.27 55.94,33.34Z" fill="#3c5eb7"/>
  <path d="M45.84,34.71Q44.2,36.17 42.08,36.77Q41.57,36.91 41.41,37.42Q40.75,39.5 41.07,41.71Q41.14,42.21 40.71,42.48L38.68,43.74A0.73,0.72 -22.1,0 0,38.35 44.51C39.32,49.25 34.89,52.15 32.04,55.43A2.22,2.21 59.3,0 0,31.55 57.36C31.9,58.93 33.02,63.96 32.14,65.33Q31.3,66.63 29.12,65.06L30.42,64.2A0.95,0.94 -21.7,0 0,30.83 63.26L29.61,55.88A1.68,1.68 0,0 1,30.04 54.45L36.39,47.7A1.36,1.32 -24.3,0 0,36.75 46.79L36.75,43.12A0.76,0.75 76.4,0 1,37.15 42.45L38.88,41.54Q39.25,41.35 39.25,40.93L39.25,36.92Q39.25,36.32 39.73,35.98C41.06,35.04 44.68,33.15 45.84,34.71Z" fill="#3c5eb7"/>
  <path d="M165.49,48.78C180.06,77.83 177.39,114.6 157.31,140.2L150.7,128.58Q150.47,128.17 150.63,127.72C152.7,121.98 152.02,116.05 151.99,110.05A1.53,1.48 -63.1,0 0,151.73 109.2L149.84,106.5Q149.52,106.05 149.52,105.5L149.47,99.2A0.71,0.71 0,0 0,148.76 98.5L144.58,98.5Q144.16,98.5 143.93,98.16L140.57,93.22C136.54,93.04 134.74,94.77 131.65,96.98Q131.24,97.27 130.75,97.28L124.43,97.48Q123.84,97.59 123.13,97.2Q122.72,96.97 122.56,96.53Q119.9,88.82 114.12,83.15Q113.75,82.79 113.75,82.28C113.75,77.47 112.73,69.64 114.97,65.46Q117.34,61.04 121.86,58.58Q122.34,58.32 122.26,57.77C121.28,51.59 126.15,51.78 130.4,51.03C133.37,50.5 135.87,47.88 138.18,46.06Q138.66,45.69 139.26,45.7L150.04,45.9Q150.7,45.92 150.49,46.54L149.5,49.49A1.57,1.57 0,0 0,150.5 51.49L161.04,54.97A1.38,1.37 13.2,0 0,162.84 53.86Q163.42,49.87 165.49,48.78Z" fill="#00ff18"/>
  <path d="M24.75,58.44Q21.69,59.15 19.21,60.16C16.72,61.17 14.84,61.09 12.37,60.77A2.81,2.8 -86.8,0 0,9.19 63.61L9.4,72.54Q7.68,72.3 7.68,71.31Q7.64,66.8 7.44,62.28Q7.42,61.78 7.71,61.39C9.58,58.85 12,59.41 15.04,59.95Q15.55,60.04 15.97,59.74Q19.32,57.36 24.75,58.44Z" fill="#3c5eb7"/>
  <path d="M21.67,73.45C24.14,73.2 21.64,78.05 21.17,78.77Q18.18,78.55 21.67,73.45Z" fill="#3c5eb7"/>
  <path d="M0.46,79.01Q6.7,79.49 12.88,78.91Q13.48,78.85 13.98,79.21L20.31,83.74Q20.72,84.03 20.73,84.53L20.8,87.58Q20.81,88.13 21.3,88.38L28.18,91.96Q28.58,92.17 29.02,92.08Q30.89,91.7 32.43,92.62Q33,92.96 33,93.62L33,98.98A1.37,1.33 66.5,0 1,32.66 99.88L29.16,103.8Q28.77,104.24 28.76,104.84C28.72,108.16 28.16,111.7 29.77,114.77Q32.68,120.3 34.35,126.33Q34.51,126.91 34.98,127.27L42.42,132.93Q42.79,133.21 42.75,133.67L40.27,161.41C12.01,143.04 -2.14,112.59 0.46,79.01Z" fill="#457edd"/>
  <path d="M28.33,87.52Q25.52,87.04 27.32,80.65C29.82,79.12 28.46,86.44 28.33,87.52Z" fill="#3c5eb7"/>
  <path d="M140.57,93.22L133.03,97.83Q132.63,98.07 132.17,97.96Q128.66,97.08 124.43,97.48L130.75,97.28Q131.24,97.27 131.65,96.98C134.74,94.77 136.54,93.04 140.57,93.22Z" fill="#3c5eb7"/>
  <path d="M89.52,110.99L90.31,111.3Q90.7,111.45 90.76,111.86C91.86,119.53 89.8,121.33 85.97,127.21Q85.7,127.63 85.69,128.13C85.46,136.63 80.59,138.04 74.61,142.13Q74.25,142.37 74.25,142.8L74.25,146.08Q74.25,146.65 73.86,147.08L54.28,168.65L52.4,167.96L72.15,146.67A1.23,1.21 67.5,0 0,72.48 145.86L72.54,142.14Q72.55,141.62 72.98,141.33Q77.57,138.16 82.17,135.01A1.42,1.42 0,0 0,82.73 134.23C83.62,131.09 83.58,127.52 85.44,124.85Q87.37,122.09 89.23,119.28A1.67,1.64 -28.6,0 0,89.51 118.36L89.52,110.99Z" fill="#3c5eb7"/>
</svg>
