<svg xmlns="http://www.w3.org/2000/svg" width="175" height="174" viewBox="0 0 175 174">
  <path d="M43.45,27.43Q38.98,27.23 34.5,27Q28.35,26.69 11.05,27.31" fill="none" stroke="#2a9ec8" stroke-width="2.00" stroke-linecap="butt"/>
  <path d="M54.5,136.54Q56.06,139.82 59.33,141.52A2.05,2.05 0,0 1,60.08 142.19Q62.1,145.1 64.97,147.21Q65.38,147.51 65.87,147.4C68.91,146.7 70.18,148.64 72.35,149.26Q85.68,153.09 99.32,150.59C102.76,149.96 106.34,148.52 109.79,147.31C120.06,143.71 128.42,135.87 135.2,127.6C138.67,123.38 140.15,118.49 142.01,113.89C145.28,105.79 146.11,96.93 145.57,88.25Q145.53,87.75 145.24,87.34C143.38,84.76 142.62,78.64 141.79,75.38C141.13,72.78 139.7,70.44 138.7,67.89Q138.52,67.44 138.52,66.96C138.54,65.1 133.79,61.03 132.23,60.24" fill="none" stroke="#2a9ec8" stroke-width="2.00" stroke-linecap="butt"/>
  <path d="M132.23,60.24C106.48,26.83 54.5,31.62 37.08,70.6C26.39,94.54 34.14,120.41 54.5,136.54" fill="none" stroke="#91d2ea" stroke-width="2.00" stroke-linecap="butt"/>
  <path d="M132.23,60.24C144.55,77.83 146.54,99.89 136.31,118.72C120.17,148.42 81.64,156.39 54.5,136.54" fill="none" stroke="#8cbed1" stroke-width="2.00" stroke-linecap="butt"/>
  <path d="M164.44,46.33A8.08,8.08 0,0 0,156.36 38.25A8.08,8.08 0,0 0,148.28 46.33A8.08,8.08 0,0 0,156.36 54.41A8.08,8.08 0,0 0,164.44 46.33" fill="none" stroke="#43849c" stroke-width="2.00" stroke-linecap="butt"/>
  <path d="M131.13,92.88A43.65,43.65 0,0 0,87.48 49.23A43.65,43.65 0,0 0,43.83 92.88A43.65,43.65 0,0 0,87.48 136.53A43.65,43.65 0,0 0,131.13 92.88" fill="none" stroke="#a5a5a5" stroke-width="2.00" stroke-linecap="butt"/>
  <path d="M75.04,67.96Q64.73,73.05 60.71,84" fill="none" stroke="#4976ab" stroke-width="2.00" stroke-linecap="butt"/>
  <path d="M60.71,84Q58.6,89.44 59.43,95.27" fill="none" stroke="#3e7183" stroke-width="2.00" stroke-linecap="butt"/>
  <path d="M59.43,95.27C61.96,120.52 94.85,129.47 109.78,109.03C119.97,95.09 115.15,75.07 99.02,67.72" fill="none" stroke="#4976ab" stroke-width="2.00" stroke-linecap="butt"/>
  <path d="M99.02,67.72Q87.19,62.14 75.04,67.96" fill="none" stroke="#6484ab" stroke-width="2.00" stroke-linecap="butt"/>
  <path d="M99.02,67.72Q106.87,74.14 108.27,82.86C110.69,97.93 95.24,110.3 80.97,105.86C63.39,100.39 61.08,78.88 75.04,67.96" fill="none" stroke="#56a3ff" stroke-width="2.00" stroke-linecap="butt"/>
  <path d="M59.43,95.27C59.54,92.98 59.33,91.33 60.03,89Q60.75,86.58 60.71,84" fill="none" stroke="#3090d7" stroke-width="2.00" stroke-linecap="butt"/>
  <path d="M43.45,27.43Q38.98,27.23 34.5,27Q28.35,26.69 11.05,27.31C10.15,22.89 10.58,17.05 16.36,17.02Q27.26,16.98 38.16,17.01C44.14,17.02 43.72,22.48 43.45,27.43Z" fill="#258aaf"/>
  <path d="M43.45,27.43Q102.59,27.54 161.72,27.51C168.52,27.51 172.98,29.52 175,36.06L175,150.04C172.95,156.33 168.93,158 162.32,158Q87.5,158 12.68,158C5.37,158 0.86,154.98 0,147.42L0,37.94Q1.43,28.61 11.05,27.31Q28.35,26.69 34.5,27Q38.98,27.23 43.45,27.43ZM54.5,136.54Q56.06,139.82 59.33,141.52A2.05,2.05 0,0 1,60.08 142.19Q62.1,145.1 64.97,147.21Q65.38,147.51 65.87,147.4C68.91,146.7 70.18,148.64 72.35,149.26Q85.68,153.09 99.32,150.59C102.76,149.96 106.34,148.52 109.79,147.31C120.06,143.71 128.42,135.87 135.2,127.6C138.67,123.38 140.15,118.49 142.01,113.89C145.28,105.79 146.11,96.93 145.57,88.25Q145.53,87.75 145.24,87.34C143.38,84.76 142.62,78.64 141.79,75.38C141.13,72.78 139.7,70.44 138.7,67.89Q138.52,67.44 138.52,66.96C138.54,65.1 133.79,61.03 132.23,60.24C106.48,26.83 54.5,31.62 37.08,70.6C26.39,94.54 34.14,120.41 54.5,136.54ZM164.44,46.33A8.08,8.08 0,0 0,156.36 38.25A8.08,8.08 0,0 0,148.28 46.33A8.08,8.08 0,0 0,156.36 54.41A8.08,8.08 0,0 0,164.44 46.33Z" fill="#2fb1e1"/>
  <path d="M132.23,60.24C144.55,77.83 146.54,99.89 136.31,118.72C120.17,148.42 81.64,156.39 54.5,136.54C34.14,120.41 26.39,94.54 37.08,70.6C54.5,31.62 106.48,26.83 132.23,60.24ZM131.13,92.88A43.65,43.65 0,0 0,87.48 49.23A43.65,43.65 0,0 0,43.83 92.88A43.65,43.65 0,0 0,87.48 136.53A43.65,43.65 0,0 0,131.13 92.88Z" fill="#f2f2f2"/>
  <path d="M156.36,46.33m-8.08,0a8.08,8.08 0,1 1,16.16 0a8.08,8.08 0,1 1,-16.16 0" fill="#575757"/>
  <path d="M131.13,92.88A43.65,43.65 0,0 1,87.48 136.53A43.65,43.65 0,0 1,43.83 92.88A43.65,43.65 0,0 1,87.48 49.23A43.65,43.65 0,0 1,131.13 92.88ZM75.04,67.96Q64.73,73.05 60.71,84Q58.6,89.44 59.43,95.27C61.96,120.52 94.85,129.47 109.78,109.03C119.97,95.09 115.15,75.07 99.02,67.72Q87.19,62.14 75.04,67.96Z" fill="#575757"/>
  <path d="M54.5,136.54C81.64,156.39 120.17,148.42 136.31,118.72C146.54,99.89 144.55,77.83 132.23,60.24C133.79,61.03 138.54,65.1 138.52,66.96Q138.52,67.44 138.7,67.89C139.7,70.44 141.13,72.78 141.79,75.38C142.62,78.64 143.38,84.76 145.24,87.34Q145.53,87.75 145.57,88.25C146.11,96.93 145.28,105.79 142.01,113.89C140.15,118.49 138.67,123.38 135.2,127.6C128.42,135.87 120.06,143.71 109.79,147.31C106.34,148.52 102.76,149.96 99.32,150.59Q85.68,153.09 72.35,149.26C70.18,148.64 68.91,146.7 65.87,147.4Q65.38,147.51 64.97,147.21Q62.1,145.1 60.08,142.19A2.05,2.05 0,0 0,59.33 141.52Q56.06,139.82 54.5,136.54Z" fill="#258aaf"/>
  <path d="M99.02,67.72Q106.87,74.14 108.27,82.86C110.69,97.93 95.24,110.3 80.97,105.86C63.39,100.39 61.08,78.88 75.04,67.96Q87.19,62.14 99.02,67.72Z" fill="#70b1ff"/>
  <path d="M99.02,67.72C115.15,75.07 119.97,95.09 109.78,109.03C94.85,129.47 61.96,120.52 59.43,95.27C59.54,92.98 59.33,91.33 60.03,89Q60.75,86.58 60.71,84Q64.73,73.05 75.04,67.96C61.08,78.88 63.39,100.39 80.97,105.86C95.24,110.3 110.69,97.93 108.27,82.86Q106.87,74.14 99.02,67.72Z" fill="#3b95ff"/>
  <path d="M60.71,84Q60.75,86.58 60.03,89C59.33,91.33 59.54,92.98 59.43,95.27Q58.6,89.44 60.71,84Z" fill="#258aaf"/>
</svg>
