<svg xmlns="http://www.w3.org/2000/svg" width="175" height="174" viewBox="0 0 175 174">
  <path d="M165.92,32.01L165.6,21.33A2.4,2.4 0,0 0,163.21 19Q101.31,18.98 38.76,19.03Q37.97,19.03 32.15,19.48Q29.09,19.72 26,19.23Q25.56,19.16 25.14,19.29Q23.37,19.83 23.12,21.58Q23.05,22.09 22.73,21.69L21.49,20.15Q21.21,19.81 21.21,19.38L21.11,1.24" fill="none" stroke="#147eda" stroke-width="2.00" stroke-linecap="butt"/>
  <path d="M165.94,51.01L165.79,43.26A2.45,2.4 30,0 0,165.46 42.08L164.04,39.67Q163.84,39.34 163.45,39.32C152.7,38.98 141.55,39.77 131.34,39.48Q115.16,39.01 98.97,39.27C97.08,39.3 95.14,40.21 93.11,39.85Q89.81,39.27 89.29,39.27Q57.27,39.11 25.23,39.56Q24.7,39.57 24.36,39.97Q22.68,41.89 22.56,44.48Q22.52,45.26 22.31,44.51Q21.04,39.84 22.7,37.13" fill="none" stroke="#1274d1" stroke-width="2.00" stroke-linecap="butt"/>
  <path d="M22.7,37.13L38.52,36.82A2.25,2.25 0,0 0,40.72 34.63C40.78,32.38 41.98,24.45 38.08,24.75" fill="none" stroke="#0e56b8" stroke-width="2.00" stroke-linecap="butt"/>
  <path d="M38.08,24.75Q37.48,22.46 36,22.5Q28.4,22.7 21.03,22.22" fill="none" stroke="#47a0e5" stroke-width="2.00" stroke-linecap="butt"/>
  <path d="M38.08,24.75C38.63,29.36 39.48,34.75 34.01,34.76Q22.33,34.77 9.14,34.7" fill="none" stroke="#417cc7" stroke-width="2.00" stroke-linecap="butt"/>
  <path d="M22.7,37.13Q22.06,36.73 21.54,37.32C20.79,38.18 21.26,55.08 21.26,57.47" fill="none" stroke="#0d50b3" stroke-width="2.00" stroke-linecap="butt"/>
  <path d="M21.26,57.47Q21.37,58.37 21.05,58.52" fill="none" stroke="#0c4aaf" stroke-width="2.00" stroke-linecap="butt"/>
  <path d="M165.93,75.02L164.83,64.77A1.94,1.94 0,0 0,162.9 63.03Q139.44,62.98 115.81,62.99Q114.85,62.99 114.49,61.99Q114.38,61.67 114.06,61.79L112.35,62.48" fill="none" stroke="#1068c8" stroke-width="2.00" stroke-linecap="butt"/>
  <path d="M112.35,62.48C112.69,40.16 82.14,35.76 76.32,56.74" fill="none" stroke="#5ea4e3" stroke-width="2.00" stroke-linecap="butt"/>
  <path d="M76.32,56.74C75.22,55.32 72.84,58.05 71,58.03C66.6,58 21.86,58.43 21.26,57.47" fill="none" stroke="#1068c8" stroke-width="2.00" stroke-linecap="butt"/>
  <path d="M112.35,62.48C109.44,87.64 70.71,81.76 76.32,56.74" fill="none" stroke="#5d9ede" stroke-width="2.00" stroke-linecap="butt"/>
  <path d="M165.95,88.02L165.74,82.57A0.05,0.04 63.3,0 0,165.66 82.54L165.44,82.8Q165.33,82.92 165.32,82.76Q165.2,80.77 163.76,80.81C143.67,81.36 126.58,80.51 103.51,80.65C102.7,80.66 102.11,81.07 101.27,81.19Q100.81,81.25 101.2,80.98Q102.59,80.01 103.79,78.78A0.32,0.27 -81,0 0,103.49 78.27Q102.55,78.98 101.18,78.78Q100.66,78.71 100.14,78.8L91.47,80.29Q90.82,80.4 90.23,80.12L87.68,78.88A0.5,0.5 0,0 0,86.97 79.42Q87.16,80.55 88.09,81.18Q88.57,81.5 87.99,81.51Q87.31,81.52 86.76,81.13Q86.31,80.83 85.78,80.84C65.62,81.23 45.42,80.31 25.3,81.12A1.11,1.09 13.8,0 0,24.41 81.65Q24.03,82.29 23.12,82.92Q21.67,83.93 21.62,82.17L21.44,75.46" fill="none" stroke="#0f5ebf" stroke-width="2.00" stroke-linecap="butt"/>
  <path d="M21.44,75.46L38.25,74.84A2.58,2.57 -0.4,0 0,40.73 72.34C40.79,70.12 41.84,62.63 38.18,62.77" fill="none" stroke="#0c4aaf" stroke-width="2.00" stroke-linecap="butt"/>
  <path d="M38.18,62.77Q37.48,59.75 34.76,59.78Q24.97,59.9 20.91,59.69" fill="none" stroke="#4594dc" stroke-width="2.00" stroke-linecap="butt"/>
  <path d="M38.18,62.77L38.04,70.05A2.4,2.4 0,0 1,35.6 72.4C27.06,72.27 18.03,71.92 9.2,72.39" fill="none" stroke="#417cc7" stroke-width="2.00" stroke-linecap="butt"/>
  <path d="M21.44,75.46L21.07,83.02" fill="none" stroke="#0b46ab" stroke-width="2.00" stroke-linecap="butt"/>
  <path d="M165.98,101.22Q148.66,99.7 130.92,100.24Q130.87,100.24 129.09,100.47C125.97,100.87 123.1,96 120.79,94.32Q117.19,91.69 113.17,89.23A0.71,0.71 0,0 0,112.35 90.39L114.03,91.76" fill="none" stroke="#0d53b6" stroke-width="2.00" stroke-linecap="butt"/>
  <path d="M114.03,91.76C104.15,87.46 95.99,87.88 83.2,88.49" fill="none" stroke="#4490d8" stroke-width="2.00" stroke-linecap="butt"/>
  <path d="M83.2,88.49Q83.45,88.01 84.06,87.9Q84.41,87.84 84.26,87.52L84,86.98A0.43,0.43 0,0 0,83.53 86.74C77.38,87.89 74.12,90 69.61,92.66C66.27,94.63 64.05,98.16 61.13,100.78A0.75,0.74 38.9,0 1,60.26 100.87Q59.84,100.63 59.38,100.51Q58.98,100.4 58.57,100.42L40.34,101.14" fill="none" stroke="#0d53b6" stroke-width="2.00" stroke-linecap="butt"/>
  <path d="M40.34,101.14Q38.64,99.8 38.18,100.78" fill="none" stroke="#0b46ab" stroke-width="2.00" stroke-linecap="butt"/>
  <path d="M38.18,100.78C37.75,99.07 37.09,98.27 35.2,98.23Q27.82,98.08 21,97.83" fill="none" stroke="#4490d8" stroke-width="2.00" stroke-linecap="butt"/>
  <path d="M83.2,88.49Q80.95,89.37 78.61,90.07C67.07,93.52 58.85,104.93 57.23,116.26Q56.8,119.25 57.01,129.3" fill="none" stroke="#4389d2" stroke-width="2.00" stroke-linecap="butt"/>
  <path d="M57.01,129.3Q56.36,128.05 55.42,128.33Q54.93,128.47 54.99,127.96L55.06,127.51Q55.12,127.03 54.68,127.2C53.56,127.62 52.97,128.02 51.7,128.01Q38.45,127.98 25.17,128.01A0.76,0.73 14.2,0 0,24.52 128.38L22.72,131.53Q22.59,131.75 22.5,131.51C20.73,126.63 21.53,119.77 21.22,114.51" fill="none" stroke="#0b46ab" stroke-width="2.00" stroke-linecap="butt"/>
  <path d="M21.22,114.51C21.12,113.31 21.28,112.51 22.7,112.6Q30.74,113.1 38.82,112.42A1.34,1.3 -69.5,0 0,39.66 112.02C41.59,110.02 40.8,103.64 40.34,101.14" fill="none" stroke="#0a3fa5" stroke-width="2.00" stroke-linecap="butt"/>
  <path d="M114.03,91.76Q129.11,100.74 131.24,118.41" fill="none" stroke="#4389d2" stroke-width="2.00" stroke-linecap="butt"/>
  <path d="M131.24,118.41L131.23,130.01Q131.23,130.5 130.74,130.5L57.49,130.5Q57.01,130.5 57.01,130.02L57.01,129.3" fill="none" stroke="#4283cd" stroke-width="2.00" stroke-linecap="butt"/>
  <path d="M165.98,126.92Q165.18,126.86 165.25,128.65Q165.27,129.28 164.75,128.93L163.72,128.24Q163.36,128 162.93,128L134.99,128A2.26,2.26 0,0 1,132.74 125.52Q133.16,121.14 131.24,118.41" fill="none" stroke="#0b46ab" stroke-width="2.00" stroke-linecap="butt"/>
  <path d="M38.18,100.78C38.34,103.82 38.9,110.47 35.69,110.48Q23.15,110.5 10.42,110.52" fill="none" stroke="#417cc7" stroke-width="2.00" stroke-linecap="butt"/>
  <path d="M21.22,114.51Q21.14,114.07 21.05,113.62" fill="none" stroke="#0939a0" stroke-width="2.00" stroke-linecap="butt"/>
  <path d="M165.96,150.99Q165.78,150.7 165.41,151Q165.19,151.16 165.12,150.9Q164.59,149.04 162.19,149.04Q102.34,148.95 42.52,149.02Q42.09,149.02 41.91,148.63Q40.01,144.53 40.47,139.97A1.09,1.07 22.6,0 0,40.07 139.02Q39.32,138.43 38.23,138.35" fill="none" stroke="#0939a0" stroke-width="2.00" stroke-linecap="butt"/>
  <path d="M38.23,138.35Q37.55,135.42 34.5,135.43Q27.74,135.45 21.02,135.62" fill="none" stroke="#4283cd" stroke-width="2.00" stroke-linecap="butt"/>
  <path d="M38.23,138.35C38.2,140.86 39,148.01 35.25,148.01Q24.81,147.99 14.36,148.01C13.46,148.01 10.83,147.72 10.52,148.25" fill="none" stroke="#417cc7" stroke-width="2.00" stroke-linecap="butt"/>
  <path d="M21.31,0L165.92,0L165.92,32.01L165.6,21.33A2.4,2.4 0,0 0,163.21 19Q101.31,18.98 38.76,19.03Q37.97,19.03 32.15,19.48Q29.09,19.72 26,19.23Q25.56,19.16 25.14,19.29Q23.37,19.83 23.12,21.58Q23.05,22.09 22.73,21.69L21.49,20.15Q21.21,19.81 21.21,19.38L21.11,1.24Q20.76,0.57 21.31,0Z" fill="#1483de"/>
  <path d="M21.11,1.24L21.21,19.38Q21.21,19.81 21.49,20.15L22.73,21.69Q23.05,22.09 23.12,21.58Q23.37,19.83 25.14,19.29Q25.56,19.16 26,19.23Q29.09,19.72 32.15,19.48Q37.97,19.03 38.76,19.03Q101.31,18.98 163.21,19A2.4,2.4 0,0 1,165.6 21.33L165.92,32.01L165.94,51.01L165.79,43.26A2.45,2.4 30,0 0,165.46 42.08L164.04,39.67Q163.84,39.34 163.45,39.32C152.7,38.98 141.55,39.77 131.34,39.48Q115.16,39.01 98.97,39.27C97.08,39.3 95.14,40.21 93.11,39.85Q89.81,39.27 89.29,39.27Q57.27,39.11 25.23,39.56Q24.7,39.57 24.36,39.97Q22.68,41.89 22.56,44.48Q22.52,45.26 22.31,44.51Q21.04,39.84 22.7,37.13L38.52,36.82A2.25,2.25 0,0 0,40.72 34.63C40.78,32.38 41.98,24.45 38.08,24.75Q37.48,22.46 36,22.5Q28.4,22.7 21.03,22.22L21.11,1.24Z" fill="#1379d5"/>
  <path d="M21.03,22.22Q28.4,22.7 36,22.5Q37.48,22.46 38.08,24.75C38.63,29.36 39.48,34.75 34.01,34.76Q22.33,34.77 9.14,34.7Q6.93,30.31 7.99,24.22C8.54,21 17.3,21.92 21.03,22.22Z" fill="#7ac6f4"/>
  <path d="M38.08,24.75C41.98,24.45 40.78,32.38 40.72,34.63A2.25,2.25 0,0 1,38.52 36.82L22.7,37.13Q22.06,36.73 21.54,37.32C20.79,38.18 21.26,55.08 21.26,57.47Q21.37,58.37 21.05,58.52L21.03,37.54A0.71,0.7 83.5,0 0,20.17 36.85Q13.69,38.35 9.14,34.7Q22.33,34.77 34.01,34.76C39.48,34.75 38.63,29.36 38.08,24.75Z" fill="#08329a"/>
  <path d="M22.7,37.13Q21.04,39.84 22.31,44.51Q22.52,45.26 22.56,44.48Q22.68,41.89 24.36,39.97Q24.7,39.57 25.23,39.56Q57.27,39.11 89.29,39.27Q89.81,39.27 93.11,39.85C95.14,40.21 97.08,39.3 98.97,39.27Q115.16,39.01 131.34,39.48C141.55,39.77 152.7,38.98 163.45,39.32Q163.84,39.34 164.04,39.67L165.46,42.08A2.45,2.4 30,0 1,165.79 43.26L165.94,51.01L165.93,75.02L164.83,64.77A1.94,1.94 0,0 0,162.9 63.03Q139.44,62.98 115.81,62.99Q114.85,62.99 114.49,61.99Q114.38,61.67 114.06,61.79L112.35,62.48C112.69,40.16 82.14,35.76 76.32,56.74C75.22,55.32 72.84,58.05 71,58.03C66.6,58 21.86,58.43 21.26,57.47C21.26,55.08 20.79,38.18 21.54,37.32Q22.06,36.73 22.7,37.13Z" fill="#116ecc"/>
  <path d="M112.35,62.48C109.44,87.64 70.71,81.76 76.32,56.74C82.14,35.76 112.69,40.16 112.35,62.48Z" fill="#aadaf9"/>
  <path d="M76.32,56.74C70.71,81.76 109.44,87.64 112.35,62.48L114.06,61.79Q114.38,61.67 114.49,61.99Q114.85,62.99 115.81,62.99Q139.44,62.98 162.9,63.03A1.94,1.94 0,0 1,164.83 64.77L165.93,75.02L165.95,88.02L165.74,82.57A0.05,0.04 63.3,0 0,165.66 82.54L165.44,82.8Q165.33,82.92 165.32,82.76Q165.2,80.77 163.76,80.81C143.67,81.36 126.58,80.51 103.51,80.65C102.7,80.66 102.11,81.07 101.27,81.19Q100.81,81.25 101.2,80.98Q102.59,80.01 103.79,78.78A0.32,0.27 -81,0 0,103.49 78.27Q102.55,78.98 101.18,78.78Q100.66,78.71 100.14,78.8L91.47,80.29Q90.82,80.4 90.23,80.12L87.68,78.88A0.5,0.5 0,0 0,86.97 79.42Q87.16,80.55 88.09,81.18Q88.57,81.5 87.99,81.51Q87.31,81.52 86.76,81.13Q86.31,80.83 85.78,80.84C65.62,81.23 45.42,80.31 25.3,81.12A1.11,1.09 13.8,0 0,24.41 81.65Q24.03,82.29 23.12,82.92Q21.67,83.93 21.62,82.17L21.44,75.46L38.25,74.84A2.58,2.57 -0.4,0 0,40.73 72.34C40.79,70.12 41.84,62.63 38.18,62.77Q37.48,59.75 34.76,59.78Q24.97,59.9 20.91,59.69Q21.42,58.4 21.05,58.52Q21.37,58.37 21.26,57.47C21.86,58.43 66.6,58 71,58.03C72.84,58.05 75.22,55.32 76.32,56.74Z" fill="#0f62c3"/>
  <path d="M20.91,59.69Q24.97,59.9 34.76,59.78Q37.48,59.75 38.18,62.77L38.04,70.05A2.4,2.4 0,0 1,35.6 72.4C27.06,72.27 18.03,71.92 9.2,72.39Q7.42,68.86 7.88,62.86C8.28,57.8 17.68,59.48 20.91,59.69Z" fill="#7ac6f4"/>
  <path d="M38.18,62.77C41.84,62.63 40.79,70.12 40.73,72.34A2.58,2.57 -0.4,0 1,38.25 74.84L21.44,75.46L21.07,83.02L21,76.01Q20.99,75.5 20.49,75.5L13.12,75.49Q12.63,75.49 12.27,75.17L9.2,72.39C18.03,71.92 27.06,72.27 35.6,72.4A2.4,2.4 0,0 0,38.04 70.05L38.18,62.77Z" fill="#08329a"/>
  <path d="M21.44,75.46L21.62,82.17Q21.67,83.93 23.12,82.92Q24.03,82.29 24.41,81.65A1.11,1.09 13.8,0 1,25.3 81.12C45.42,80.31 65.62,81.23 85.78,80.84Q86.31,80.83 86.76,81.13Q87.31,81.52 87.99,81.51Q88.57,81.5 88.09,81.18Q87.16,80.55 86.97,79.42A0.5,0.5 0,0 1,87.68 78.88L90.23,80.12Q90.82,80.4 91.47,80.29L100.14,78.8Q100.66,78.71 101.18,78.78Q102.55,78.98 103.49,78.27A0.32,0.27 -81,0 1,103.79 78.78Q102.59,80.01 101.2,80.98Q100.81,81.25 101.27,81.19C102.11,81.07 102.7,80.66 103.51,80.65C126.58,80.51 143.67,81.36 163.76,80.81Q165.2,80.77 165.32,82.76Q165.33,82.92 165.44,82.8L165.66,82.54A0.05,0.04 63.3,0 1,165.74 82.57L165.95,88.02L165.98,101.22Q148.66,99.7 130.92,100.24Q130.87,100.24 129.09,100.47C125.97,100.87 123.1,96 120.79,94.32Q117.19,91.69 113.17,89.23A0.71,0.71 0,0 0,112.35 90.39L114.03,91.76C104.15,87.46 95.99,87.88 83.2,88.49Q83.45,88.01 84.06,87.9Q84.41,87.84 84.26,87.52L84,86.98A0.43,0.43 0,0 0,83.53 86.74C77.38,87.89 74.12,90 69.61,92.66C66.27,94.63 64.05,98.16 61.13,100.78A0.75,0.74 38.9,0 1,60.26 100.87Q59.84,100.63 59.38,100.51Q58.98,100.4 58.57,100.42L40.34,101.14Q38.64,99.8 38.18,100.78C37.75,99.07 37.09,98.27 35.2,98.23Q27.82,98.08 21,97.83L21.07,83.02L21.44,75.46Z" fill="#0e5abb"/>
  <path d="M83.2,88.49Q80.95,89.37 78.61,90.07C67.07,93.52 58.85,104.93 57.23,116.26Q56.8,119.25 57.01,129.3Q56.36,128.05 55.42,128.33Q54.93,128.47 54.99,127.96L55.06,127.51Q55.12,127.03 54.68,127.2C53.56,127.62 52.97,128.02 51.7,128.01Q38.45,127.98 25.17,128.01A0.76,0.73 14.2,0 0,24.52 128.38L22.72,131.53Q22.59,131.75 22.5,131.51C20.73,126.63 21.53,119.77 21.22,114.51C21.12,113.31 21.28,112.51 22.7,112.6Q30.74,113.1 38.82,112.42A1.34,1.3 -69.5,0 0,39.66 112.02C41.59,110.02 40.8,103.64 40.34,101.14L58.57,100.42Q58.98,100.4 59.38,100.51Q59.84,100.63 60.26,100.87A0.75,0.74 38.9,0 0,61.13 100.78C64.05,98.16 66.27,94.63 69.61,92.66C74.12,90 77.38,87.89 83.53,86.74A0.43,0.43 0,0 1,84 86.98L84.26,87.52Q84.41,87.84 84.06,87.9Q83.45,88.01 83.2,88.49Z" fill="#0c4cb0"/>
  <path d="M114.03,91.76Q129.11,100.74 131.24,118.41L131.23,130.01Q131.23,130.5 130.74,130.5L57.49,130.5Q57.01,130.5 57.01,130.02L57.01,129.3Q56.8,119.25 57.23,116.26C58.85,104.93 67.07,93.52 78.61,90.07Q80.95,89.37 83.2,88.49C95.99,87.88 104.15,87.46 114.03,91.76Z" fill="#7ac6f4"/>
  <path d="M165.98,101.22L165.98,126.92Q165.18,126.86 165.25,128.65Q165.27,129.28 164.75,128.93L163.72,128.24Q163.36,128 162.93,128L134.99,128A2.26,2.26 0,0 1,132.74 125.52Q133.16,121.14 131.24,118.41Q129.11,100.74 114.03,91.76L112.35,90.39A0.71,0.71 0,0 1,113.17 89.23Q117.19,91.69 120.79,94.32C123.1,96 125.97,100.87 129.09,100.47Q130.87,100.24 130.92,100.24Q148.66,99.7 165.98,101.22Z" fill="#0c4cb0"/>
  <path d="M21,97.83Q27.82,98.08 35.2,98.23C37.09,98.27 37.75,99.07 38.18,100.78C38.34,103.82 38.9,110.47 35.69,110.48Q23.15,110.5 10.42,110.52Q9.26,110.46 8.35,109.46A1.37,1.36 24.3,0 1,8 108.55L8,100.27A2.51,2.5 0.1,0 1,10.52 97.77L21,97.83Z" fill="#7ac6f4"/>
  <path d="M40.34,101.14C40.8,103.64 41.59,110.02 39.66,112.02A1.34,1.3 -69.5,0 1,38.82 112.42Q30.74,113.1 22.7,112.6C21.28,112.51 21.12,113.31 21.22,114.51Q21.14,114.07 21.05,113.62Q18.22,112.6 13.07,112.95Q11.46,113.06 10.42,110.52Q23.15,110.5 35.69,110.48C38.9,110.47 38.34,103.82 38.18,100.78Q38.64,99.8 40.34,101.14Z" fill="#08329a"/>
  <path d="M21.05,113.62Q21.14,114.07 21.22,114.51C21.53,119.77 20.73,126.63 22.5,131.51Q22.59,131.75 22.72,131.53L24.52,128.38A0.76,0.73 14.2,0 1,25.17 128.01Q38.45,127.98 51.7,128.01C52.97,128.02 53.56,127.62 54.68,127.2Q55.12,127.03 55.06,127.51L54.99,127.96Q54.93,128.47 55.42,128.33Q56.36,128.05 57.01,129.3L57.01,130.02Q57.01,130.5 57.49,130.5L130.74,130.5Q131.23,130.5 131.23,130.01L131.24,118.41Q133.16,121.14 132.74,125.52A2.26,2.26 0,0 0,134.99 128L162.93,128Q163.36,128 163.72,128.24L164.75,128.93Q165.27,129.28 165.25,128.65Q165.18,126.86 165.98,126.92L165.96,150.99Q165.78,150.7 165.41,151Q165.19,151.16 165.12,150.9Q164.59,149.04 162.19,149.04Q102.34,148.95 42.52,149.02Q42.09,149.02 41.91,148.63Q40.01,144.53 40.47,139.97A1.09,1.07 22.6,0 0,40.07 139.02Q39.32,138.43 38.23,138.35Q37.55,135.42 34.5,135.43Q27.74,135.45 21.02,135.62L21.05,113.62Z" fill="#0a3fa6"/>
  <path d="M21.02,135.62Q27.74,135.45 34.5,135.43Q37.55,135.42 38.23,138.35C38.2,140.86 39,148.01 35.25,148.01Q24.81,147.99 14.36,148.01C13.46,148.01 10.83,147.72 10.52,148.25C8.84,147.74 8.02,147.03 8.01,145.15C7.99,142.35 6.68,135.2 11,135.31Q16,135.43 21.02,135.62Z" fill="#7ac6f4"/>
  <path d="M38.23,138.35Q39.32,138.43 40.07,139.02A1.09,1.07 22.6,0 1,40.47 139.97Q40.01,144.53 41.91,148.63Q42.09,149.02 42.52,149.02Q102.34,148.95 162.19,149.04Q164.59,149.04 165.12,150.9Q165.19,151.16 165.41,151Q165.78,150.7 165.96,150.99L165.78,174L21.15,174L21,151.36A0.52,0.52 0,0 0,20.49 150.84L12.68,150.72Q12.18,150.72 11.82,150.37Q10.91,149.48 10.52,148.25C10.83,147.72 13.46,148.01 14.36,148.01Q24.81,147.99 35.25,148.01C39,148.01 38.2,140.86 38.23,138.35Z" fill="#08329a"/>
</svg>
