<svg xmlns="http://www.w3.org/2000/svg" width="175" height="174" viewBox="0 0 175 174">
  <path d="M22.43,54.13L20.44,55.67" fill="none" stroke="#c9b87e" stroke-width="2.00" stroke-linecap="butt"/>
  <path d="M20.44,55.67L3.8,68.33Q2.94,68.98 3.84,69.57L14.83,76.88A0.73,0.72 -46.2,0 0,15.66 76.86L20.36,73.43" fill="none" stroke="#f1d873" stroke-width="2.00" stroke-linecap="butt"/>
  <path d="M20.36,73.43L20.33,78.47" fill="none" stroke="#c9b87e" stroke-width="2.00" stroke-linecap="butt"/>
  <path d="M20.33,78.47Q19.61,78.57 19.19,79.01Q18.83,79.41 19.18,79.81Q19.52,80.2 20.4,80.27" fill="none" stroke="#e9d99e" stroke-width="2.00" stroke-linecap="butt"/>
  <path d="M20.4,80.27L21.68,81.48" fill="none" stroke="#c9b87e" stroke-width="2.00" stroke-linecap="butt"/>
  <path d="M21.68,81.48L71.29,114.61" fill="none" stroke="#f1e1a7" stroke-width="2.00" stroke-linecap="butt"/>
  <path d="M71.29,114.61L86.52,124.85A1.29,1.29 0,0 0,87.95 124.86L158.31,78.85" fill="none" stroke="#d2c288" stroke-width="2.00" stroke-linecap="butt"/>
  <path d="M158.31,78.85L159.05,78.08" fill="none" stroke="#c9b87e" stroke-width="2.00" stroke-linecap="butt"/>
  <path d="M159.05,78.08L164.01,75.09" fill="none" stroke="#ccb65d" stroke-width="2.00" stroke-linecap="butt"/>
  <path d="M164.01,75.09L172.34,69.79Q172.86,69.46 172.37,69.08L159,58.88" fill="none" stroke="#f1d873" stroke-width="2.00" stroke-linecap="butt"/>
  <path d="M159,58.88Q159.54,55.94 157.59,54.47Q157.16,54.15 156.62,54.25Q154.62,54.64 153.02,54.26" fill="none" stroke="#c9b87e" stroke-width="2.00" stroke-linecap="butt"/>
  <path d="M153.02,54.26Q120.79,29.09 87.82,5.33A0.69,0.68 44.5,0 0,87.03 5.33Q54.16,29.07 22.43,54.13" fill="none" stroke="#f1d873" stroke-width="2.00" stroke-linecap="butt"/>
  <path d="M153.02,54.26L127.89,54.11" fill="none" stroke="#d7cda3" stroke-width="2.00" stroke-linecap="butt"/>
  <path d="M127.89,54.11Q108.77,40 90.35,26.64Q88.76,25.49 87.37,25.2Q86.84,25.09 86.4,25.41L46.43,54.37" fill="none" stroke="#f1d873" stroke-width="2.00" stroke-linecap="butt"/>
  <path d="M46.43,54.37L22.43,54.13" fill="none" stroke="#d7cda3" stroke-width="2.00" stroke-linecap="butt"/>
  <path d="M127.89,54.11L121.64,54.43" fill="none" stroke="#c9b87e" stroke-width="2.00" stroke-linecap="butt"/>
  <path d="M121.64,54.43L87.9,29.78Q87.5,29.48 87.09,29.78L53.33,54.39" fill="none" stroke="#f1e1a7" stroke-width="2.00" stroke-linecap="butt"/>
  <path d="M53.33,54.39L49.39,54.3Q48.92,54.29 48.51,54.52Q47.69,54.99 46.43,54.37" fill="none" stroke="#c9b87e" stroke-width="2.00" stroke-linecap="butt"/>
  <path d="M159,58.88Q158.56,60.93 158.95,62.78" fill="none" stroke="#d7cda3" stroke-width="2.00" stroke-linecap="butt"/>
  <path d="M158.95,62.78Q158.4,70.32 159.05,78.08" fill="none" stroke="#b2ab8d" stroke-width="2.00" stroke-linecap="butt"/>
  <path d="M158.31,78.85L158.24,70.59" fill="none" stroke="#b8b7b7" stroke-width="2.00" stroke-linecap="butt"/>
  <path d="M158.24,70.59L158.12,56.39Q158.11,55.88 157.6,55.88L22.41,55.97A0.58,0.58 0,0 0,21.83 56.55L21.68,81.48" fill="none" stroke="#d7d6d6" stroke-width="2.00" stroke-linecap="butt"/>
  <path d="M20.4,80.27Q21.04,78.74 20.33,78.47" fill="none" stroke="#cecece" stroke-width="2.00" stroke-linecap="butt"/>
  <path d="M20.36,73.43L20.44,55.67" fill="none" stroke="#d7cda3" stroke-width="2.00" stroke-linecap="butt"/>
  <path d="M121.64,54.43L116.59,54.21" fill="none" stroke="#d7d6d6" stroke-width="2.00" stroke-linecap="butt"/>
  <path d="M116.59,54.21L88.11,33.22A1.1,1.09 44.7,0 0,86.82 33.22L58.56,54.12" fill="none" stroke="#f7f7f7" stroke-width="2.00" stroke-linecap="butt"/>
  <path d="M58.56,54.12L53.33,54.39" fill="none" stroke="#d7d6d6" stroke-width="2.00" stroke-linecap="butt"/>
  <path d="M116.59,54.21L58.56,54.12" fill="none" stroke="#cecece" stroke-width="2.00" stroke-linecap="butt"/>
  <path d="M164.01,75.09L163.98,63.72Q163.98,63.19 163.51,62.94Q161.58,61.91 158.95,62.78" fill="none" stroke="#dacb82" stroke-width="2.00" stroke-linecap="butt"/>
  <path d="M158.24,70.59C153.88,73.81 148.15,76.02 144.11,78.41C126.96,88.57 113.77,95.09 94.69,103.65C92.61,104.58 89.75,106.21 87.14,107.18C81.59,109.25 76.66,112.3 71.29,114.61" fill="none" stroke="#e0e0e0" stroke-width="2.00" stroke-linecap="butt"/>
  <path d="M82.01,126.55L4.63,74.82A0.41,0.41 0,0 0,4 75.16L4,166.03Q4,166.53 4.31,166.91C7.39,170.68 15.37,170.69 19.21,168.41C23,166.16 26.97,163.27 30.29,161.21Q56.49,144.99 82.01,127.58Q82.78,127.06 82.01,126.55" fill="none" stroke="#f1d873" stroke-width="2.00" stroke-linecap="butt"/>
  <path d="M92.1,127.34L156.11,169.5Q156.51,169.76 156.99,169.76C161.84,169.75 170.99,171.43 171,163.61Q171.01,119.81 171,76.09A0.33,0.33 0,0 0,170.49 75.82L92.1,127.06A0.17,0.17 0,0 0,92.1 127.34" fill="none" stroke="#f1d873" stroke-width="2.00" stroke-linecap="butt"/>
  <path d="M149.63,169.25L88.54,129.48A1.63,1.63 0,0 0,86.76 129.48L25,169.43Q24.49,169.75 25.09,169.75L149.49,169.74Q150.38,169.74 149.63,169.25" fill="none" stroke="#f1d873" stroke-width="2.00" stroke-linecap="butt"/>
  <path d="M41.61,67.53L42.98,76.16Q43.1,76.91 43.85,76.95Q45.79,77.06 45.5,75.26Q44.41,68.42 43.31,61.51A0.62,0.61 83.4,0 0,42.66 60.99L42.34,61.02Q41.78,61.06 41.53,61.57L37.22,70.36A0.29,0.28 44.7,0 1,36.71 70.36L32.16,61.45A0.89,0.89 0,0 0,30.49 61.7L28.05,75.24Q27.97,75.69 28.39,75.86C31.81,77.31 31.76,69.55 32.29,67.46Q32.49,66.69 32.82,67.41L36.56,75.46A0.36,0.36 0,0 0,37.22 75.46L40.88,67.43A0.38,0.38 0,0 1,41.61 67.53" fill="none" stroke="#d7d6d6" stroke-width="2.00" stroke-linecap="butt"/>
  <path d="M59.93,63.19L62.23,63.15A0.26,0.26 0,0 0,62.48 62.89L62.48,62.61A1.6,1.31 89.1,0 0,61.14 61.03L60.94,61.03A1.6,1.31 89.1,0 0,59.66 62.65L59.66,62.93A0.26,0.26 0,0 0,59.93 63.19" fill="none" stroke="#d7d6d6" stroke-width="2.00" stroke-linecap="butt"/>
  <path d="M67.26,61.91A0.91,0.91 0,0 0,66.35 61L65.67,61A0.91,0.91 0,0 0,64.76 61.91L64.74,75.05A0.91,0.91 0,0 0,65.65 75.96L66.33,75.96A0.91,0.91 0,0 0,67.24 75.05L67.26,61.91" fill="none" stroke="#d7d6d6" stroke-width="2.00" stroke-linecap="butt"/>
  <path d="M53.91,69.33C48.15,64.92 43.53,73.34 49.58,75.69Q51.55,76.45 53.51,75.5Q53.89,75.32 54.29,75.45L56.11,76.05Q56.87,76.3 56.93,75.49C57.09,73.27 57.84,65.91 54.83,65.19Q51.34,64.35 48.48,65.77A0.65,0.65 0,0 0,48.79 67C50.67,66.98 54.03,66.32 54.51,68.97Q54.68,69.92 53.91,69.33" fill="none" stroke="#d7d6d6" stroke-width="2.00" stroke-linecap="butt"/>
  <path d="M62.25,66.22A0.73,0.73 0,0 0,61.52 65.49L60.48,65.49A0.73,0.73 0,0 0,59.75 66.22L59.73,75.2A0.73,0.73 0,0 0,60.46 75.93L61.5,75.93A0.73,0.73 0,0 0,62.23 75.2L62.25,66.22" fill="none" stroke="#d7d6d6" stroke-width="2.00" stroke-linecap="butt"/>
  <path d="M54.58,72.48A2.68,1.51 -0.5,0 0,51.89 70.99A2.68,1.51 -0.5,0 0,49.22 72.52A2.68,1.51 -0.5,0 0,51.91 74.01A2.68,1.51 -0.5,0 0,54.58 72.48" fill="none" stroke="#d7d6d6" stroke-width="2.00" stroke-linecap="butt"/>
  <path d="M175,66.23L175,167.52Q171.88,173.12 165.69,174L12.22,174Q3.06,173.99 0,167L0,66.27C28.39,44.41 56.76,22.67 85.51,1.32Q85.94,1 86.47,1L88.57,1Q89.12,1 89.55,1.32Q132.77,33.19 175,66.23ZM22.43,54.13L20.44,55.67L3.8,68.33Q2.94,68.98 3.84,69.57L14.83,76.88A0.73,0.72 -46.2,0 0,15.66 76.86L20.36,73.43L20.33,78.47Q19.61,78.57 19.19,79.01Q18.83,79.41 19.18,79.81Q19.52,80.2 20.4,80.27L21.68,81.48L71.29,114.61L86.52,124.85A1.29,1.29 0,0 0,87.95 124.86L158.31,78.85L159.05,78.08L164.01,75.09L172.34,69.79Q172.86,69.46 172.37,69.08L159,58.88Q159.54,55.94 157.59,54.47Q157.16,54.15 156.62,54.25Q154.62,54.64 153.02,54.26Q120.79,29.09 87.82,5.33A0.69,0.68 44.5,0 0,87.03 5.33Q54.16,29.07 22.43,54.13ZM82.01,126.55L4.63,74.82A0.41,0.41 0,0 0,4 75.16L4,166.03Q4,166.53 4.31,166.91C7.39,170.68 15.37,170.69 19.21,168.41C23,166.16 26.97,163.27 30.29,161.21Q56.49,144.99 82.01,127.58Q82.78,127.06 82.01,126.55ZM92.1,127.34L156.11,169.5Q156.51,169.76 156.99,169.76C161.84,169.75 170.99,171.43 171,163.61Q171.01,119.81 171,76.09A0.33,0.33 0,0 0,170.49 75.82L92.1,127.06A0.17,0.17 0,0 0,92.1 127.34ZM149.63,169.25L88.54,129.48A1.63,1.63 0,0 0,86.76 129.48L25,169.43Q24.49,169.75 25.09,169.75L149.49,169.74Q150.38,169.74 149.63,169.25Z" fill="#e3c34e"/>
  <path d="M153.02,54.26L127.89,54.11Q108.77,40 90.35,26.64Q88.76,25.49 87.37,25.2Q86.84,25.09 86.4,25.41L46.43,54.37L22.43,54.13Q54.16,29.07 87.03,5.33A0.69,0.68 44.5,0 1,87.82 5.33Q120.79,29.09 153.02,54.26Z" fill="#ffed98"/>
  <path d="M127.89,54.11L121.64,54.43L87.9,29.78Q87.5,29.48 87.09,29.78L53.33,54.39L49.39,54.3Q48.92,54.29 48.51,54.52Q47.69,54.99 46.43,54.37L86.4,25.41Q86.84,25.09 87.37,25.2Q88.76,25.49 90.35,26.64Q108.77,40 127.89,54.11Z" fill="#e3c34e"/>
  <path d="M121.64,54.43L116.59,54.21L88.11,33.22A1.1,1.09 44.7,0 0,86.82 33.22L58.56,54.12L53.33,54.39L87.09,29.78Q87.5,29.48 87.9,29.78L121.64,54.43Z" fill="#ffffff"/>
  <path d="M116.59,54.21L58.56,54.12L86.82,33.22A1.1,1.09 44.7,0 1,88.11 33.22L116.59,54.21Z" fill="#eeeeee"/>
  <path d="M127.89,54.11L153.02,54.26Q154.62,54.64 156.62,54.25Q157.16,54.15 157.59,54.47Q159.54,55.94 159,58.88Q158.56,60.93 158.95,62.78Q158.4,70.32 159.05,78.08L158.31,78.85L158.24,70.59L158.12,56.39Q158.11,55.88 157.6,55.88L22.41,55.97A0.58,0.58 0,0 0,21.83 56.55L21.68,81.48L20.4,80.27Q21.04,78.74 20.33,78.47L20.36,73.43L20.44,55.67L22.43,54.13L46.43,54.37Q47.69,54.99 48.51,54.52Q48.92,54.29 49.39,54.3L53.33,54.39L58.56,54.12L116.59,54.21L121.64,54.43L127.89,54.11Z" fill="#aeadad"/>
  <path d="M20.44,55.67L20.36,73.43L15.66,76.86A0.73,0.72 -46.2,0 1,14.83 76.88L3.84,69.57Q2.94,68.98 3.8,68.33L20.44,55.67Z" fill="#ffed98"/>
  <path d="M158.24,70.59C153.88,73.81 148.15,76.02 144.11,78.41C126.96,88.57 113.77,95.09 94.69,103.65C92.61,104.58 89.75,106.21 87.14,107.18C81.59,109.25 76.66,112.3 71.29,114.61L21.68,81.48L21.83,56.55A0.58,0.58 0,0 1,22.41 55.97L157.6,55.88Q158.11,55.88 158.12,56.39L158.24,70.59ZM41.61,67.53L42.98,76.16Q43.1,76.91 43.85,76.95Q45.79,77.06 45.5,75.26Q44.41,68.42 43.31,61.51A0.62,0.61 83.4,0 0,42.66 60.99L42.34,61.02Q41.78,61.06 41.53,61.57L37.22,70.36A0.29,0.28 44.7,0 1,36.71 70.36L32.16,61.45A0.89,0.89 0,0 0,30.49 61.7L28.05,75.24Q27.97,75.69 28.39,75.86C31.81,77.31 31.76,69.55 32.29,67.46Q32.49,66.69 32.82,67.41L36.56,75.46A0.36,0.36 0,0 0,37.22 75.46L40.88,67.43A0.38,0.38 0,0 1,41.61 67.53ZM59.93,63.19L62.23,63.15A0.26,0.26 0,0 0,62.48 62.89L62.48,62.61A1.6,1.31 89.1,0 0,61.14 61.03L60.94,61.03A1.6,1.31 89.1,0 0,59.66 62.65L59.66,62.93A0.26,0.26 0,0 0,59.93 63.19ZM67.26,61.91A0.91,0.91 0,0 0,66.35 61L65.67,61A0.91,0.91 0,0 0,64.76 61.91L64.74,75.05A0.91,0.91 0,0 0,65.65 75.96L66.33,75.96A0.91,0.91 0,0 0,67.24 75.05L67.26,61.91ZM53.91,69.33C48.15,64.92 43.53,73.34 49.58,75.69Q51.55,76.45 53.51,75.5Q53.89,75.32 54.29,75.45L56.11,76.05Q56.87,76.3 56.93,75.49C57.09,73.27 57.84,65.91 54.83,65.19Q51.34,64.35 48.48,65.77A0.65,0.65 0,0 0,48.79 67C50.67,66.98 54.03,66.32 54.51,68.97Q54.68,69.92 53.91,69.33ZM62.25,66.22A0.73,0.73 0,0 0,61.52 65.49L60.48,65.49A0.73,0.73 0,0 0,59.75 66.22L59.73,75.2A0.73,0.73 0,0 0,60.46 75.93L61.5,75.93A0.73,0.73 0,0 0,62.23 75.2L62.25,66.22Z" fill="#ffffff"/>
  <path d="M159,58.88L172.37,69.08Q172.86,69.46 172.34,69.79L164.01,75.09L163.98,63.72Q163.98,63.19 163.51,62.94Q161.58,61.91 158.95,62.78Q158.56,60.93 159,58.88Z" fill="#ffed98"/>
  <path d="M41.61,67.53A0.38,0.38 0,0 0,40.88 67.43L37.22,75.46A0.36,0.36 0,0 1,36.56 75.46L32.82,67.41Q32.49,66.69 32.29,67.46C31.76,69.55 31.81,77.31 28.39,75.86Q27.97,75.69 28.05,75.24L30.49,61.7A0.89,0.89 0,0 1,32.16 61.45L36.71,70.36A0.29,0.28 44.7,0 0,37.22 70.36L41.53,61.57Q41.78,61.06 42.34,61.02L42.66,60.99A0.62,0.61 83.4,0 1,43.31 61.51Q44.41,68.42 45.5,75.26Q45.79,77.06 43.85,76.95Q43.1,76.91 42.98,76.16L41.61,67.53Z" fill="#aeadad"/>
  <path d="M59.93,63.19A0.26,0.26 0,0 1,59.66 62.93L59.66,62.65A1.6,1.31 89.1,0 1,60.94 61.03L61.14,61.03A1.6,1.31 89.1,0 1,62.48 62.61L62.48,62.89A0.26,0.26 0,0 1,62.23 63.15L59.93,63.19Z" fill="#aeadad"/>
  <path d="M65.67,61L66.35,61A0.91,0.91 45.1,0 1,67.26 61.91L67.24,75.05A0.91,0.91 45.1,0 1,66.33 75.96L65.65,75.96A0.91,0.91 45.1,0 1,64.74 75.05L64.76,61.91A0.91,0.91 45.1,0 1,65.67 61z" fill="#aeadad"/>
  <path d="M164.01,75.09L159.05,78.08Q158.4,70.32 158.95,62.78Q161.58,61.91 163.51,62.94Q163.98,63.19 163.98,63.72L164.01,75.09Z" fill="#b5a86c"/>
  <path d="M54.51,68.97C54.03,66.32 50.67,66.98 48.79,67A0.65,0.65 0,0 1,48.48 65.77Q51.34,64.35 54.83,65.19C57.84,65.91 57.09,73.27 56.93,75.49Q56.87,76.3 56.11,76.05L54.29,75.45Q53.89,75.32 53.51,75.5Q51.55,76.45 49.58,75.69C43.53,73.34 48.15,64.92 53.91,69.33Q54.68,69.92 54.51,68.97ZM54.58,72.48A2.68,1.51 -0.5,0 0,51.89 70.99A2.68,1.51 -0.5,0 0,49.22 72.52A2.68,1.51 -0.5,0 0,51.91 74.01A2.68,1.51 -0.5,0 0,54.58 72.48Z" fill="#aeadad"/>
  <path d="M60.48,65.49L61.52,65.49A0.73,0.73 45.1,0 1,62.25 66.22L62.23,75.2A0.73,0.73 45.1,0 1,61.5 75.93L60.46,75.93A0.73,0.73 45.1,0 1,59.73 75.2L59.75,66.22A0.73,0.73 45.1,0 1,60.48 65.49z" fill="#aeadad"/>
  <path d="M158.24,70.59L158.31,78.85L87.95,124.86A1.29,1.29 0,0 1,86.52 124.85L71.29,114.61C76.66,112.3 81.59,109.25 87.14,107.18C89.75,106.21 92.61,104.58 94.69,103.65C113.77,95.09 126.96,88.57 144.11,78.41C148.15,76.02 153.88,73.81 158.24,70.59Z" fill="#c1c1c1"/>
  <path d="M49.22,72.52a1.51,2.68 89.5,1 0,5.36 -0.05a1.51,2.68 89.5,1 0,-5.36 0.05z" fill="#ffffff"/>
  <path d="M82.01,127.58Q56.49,144.99 30.29,161.21C26.97,163.27 23,166.16 19.21,168.41C15.37,170.69 7.39,170.68 4.31,166.91Q4,166.53 4,166.03L4,75.16A0.41,0.41 0,0 1,4.63 74.82L82.01,126.55Q82.78,127.06 82.01,127.58Z" fill="#ffed98"/>
  <path d="M92.1,127.34A0.17,0.17 0,0 1,92.1 127.06L170.49,75.82A0.33,0.33 0,0 1,171 76.09Q171.01,119.81 171,163.61C170.99,171.43 161.84,169.75 156.99,169.76Q156.51,169.76 156.11,169.5L92.1,127.34Z" fill="#ffed98"/>
  <path d="M20.33,78.47Q21.04,78.74 20.4,80.27Q19.52,80.2 19.18,79.81Q18.83,79.41 19.19,79.01Q19.61,78.57 20.33,78.47Z" fill="#eeeeee"/>
  <path d="M149.49,169.74L25.09,169.75Q24.49,169.75 25,169.43L86.76,129.48A1.63,1.63 0,0 1,88.54 129.48L149.63,169.25Q150.38,169.74 149.49,169.74Z" fill="#ffed98"/>
</svg>
