<svg xmlns="http://www.w3.org/2000/svg" width="175" height="174" viewBox="0 0 175 174">
  <path d="M175,109.71Q156.94,91.87 139.53,74.47C130.57,65.51 117.68,67.65 110.19,77.19Q93.95,97.89 77.57,118.68" fill="none" stroke="#56ad9f" stroke-width="2.00" stroke-linecap="butt"/>
  <path d="M77.57,118.68Q69.21,110.35 61.05,102.18Q56,97.13 52.83,95.7C44.37,91.87 35.06,94.75 29.6,102.09Q18.68,116.76 0,141.19" fill="none" stroke="#459b96" stroke-width="2.00" stroke-linecap="butt"/>
  <path d="M81.07,56.12A18.65,18.65 0,0 0,62.42 37.47A18.65,18.65 0,0 0,43.77 56.12A18.65,18.65 0,0 0,62.42 74.77A18.65,18.65 0,0 0,81.07 56.12" fill="none" stroke="#8d9f8c" stroke-width="2.00" stroke-linecap="butt"/>
  <path d="M175,120.27Q174.4,123.44 175,126.6" fill="none" stroke="#56ad9f" stroke-width="2.00" stroke-linecap="butt"/>
  <path d="M43.6,162L77.57,118.68" fill="none" stroke="#7ab141" stroke-width="2.00" stroke-linecap="butt"/>
  <path d="M175,31.58L175,109.71Q156.94,91.87 139.53,74.47C130.57,65.51 117.68,67.65 110.19,77.19Q93.95,97.89 77.57,118.68Q69.21,110.35 61.05,102.18Q56,97.13 52.83,95.7C44.37,91.87 35.06,94.75 29.6,102.09Q18.68,116.76 0,141.19L0,30.47C1.08,19.66 7.91,12.96 18.59,12.97Q87.67,13.05 156.74,12.97C167.57,12.96 174.3,20.91 175,31.58ZM81.07,56.12A18.65,18.65 0,0 0,62.42 37.47A18.65,18.65 0,0 0,43.77 56.12A18.65,18.65 0,0 0,62.42 74.77A18.65,18.65 0,0 0,81.07 56.12Z" fill="#2196f3"/>
  <path d="M62.42,56.12m-18.65,0a18.65,18.65 0,1 1,37.3 0a18.65,18.65 0,1 1,-37.3 0" fill="#f9a825"/>
  <path d="M175,109.71L175,120.27Q174.4,123.44 175,126.6L175,133.55C174.66,138.91 175.5,145.35 173.68,150.07C170.2,159.03 163.34,162.01 153.97,162.01Q98.94,162 43.6,162L77.57,118.68Q93.95,97.89 110.19,77.19C117.68,67.65 130.57,65.51 139.53,74.47Q156.94,91.87 175,109.71Z" fill="#8bc34a"/>
  <path d="M77.57,118.68L43.6,162Q32.48,161.98 21.09,162.02Q14.88,162.04 11.57,160.72C5.11,158.15 0.2,151.84 0.29,144.43Q0.31,142.42 0,140.33Q0.04,140.76 0,141.19Q18.68,116.76 29.6,102.09C35.06,94.75 44.37,91.87 52.83,95.7Q56,97.13 61.05,102.18Q69.21,110.35 77.57,118.68Z" fill="#689f38"/>
  <path d="M175,120.27L175,126.6Q174.4,123.44 175,120.27Z" fill="#2196f3"/>
</svg>
