<svg xmlns="http://www.w3.org/2000/svg" width="175" height="174" viewBox="0 0 175 174">
  <path d="M87.52,9.79L82.58,13.75" fill="none" stroke="#372b00" stroke-width="2.00" stroke-linecap="butt"/>
  <path d="M82.58,13.75L62.57,6.88Q62,6.69 62,7.29L62,10.23Q62,10.71 62.45,10.86L80.09,16.83" fill="none" stroke="#b68216" stroke-width="2.00" stroke-linecap="butt"/>
  <path d="M80.09,16.83L77.18,21.69" fill="none" stroke="#372b00" stroke-width="2.00" stroke-linecap="butt"/>
  <path d="M77.18,21.69L62.43,16.72Q62,16.57 62,17.03L62,36.01A0.39,0.38 -10.1,0 0,62.52 36.37C70.67,33.48 74.67,38.23 74.56,45.76Q74.38,58.59 72.14,71.24C70.96,77.93 71.84,82.73 75.44,88.04C77.8,91.52 83.88,98.74 83.99,102.79C84.01,103.57 83.43,109.21 83.54,109.31A0.31,0.31 0,0 0,84.03 109.17L86.43,101.5Q86.54,101.15 86.41,100.79Q84.44,95.12 82.58,89.45C80.99,84.61 79.66,82.2 83.43,78.68C87.27,75.1 95.4,65.72 99.93,68.31Q105.72,71.62 112.44,72.01Q112.95,72.04 112.95,71.53L112.78,55.43" fill="none" stroke="#6e9137" stroke-width="2.00" stroke-linecap="butt"/>
  <path d="M112.78,55.43Q114.97,52.47 118.89,49.42" fill="none" stroke="#372b00" stroke-width="2.00" stroke-linecap="butt"/>
  <path d="M118.89,49.42L118.98,70.94Q118.98,71.44 119.48,71.38C125.76,70.68 136.68,70.15 141.73,66.98C148.59,62.68 148.72,52.96 143.78,47.01C142.33,45.26 141.47,42.59 142.49,40.76C144.29,37.58 146.19,32.75 150.03,31.57Q154.99,30.05 160.17,28.95Q160.75,28.83 160.75,28.24L160.75,20.05Q160.75,19.52 160.25,19.69L124.63,31.75" fill="none" stroke="#7b9c44" stroke-width="2.00" stroke-linecap="butt"/>
  <path d="M124.63,31.75L124.16,26.21" fill="none" stroke="#372b00" stroke-width="2.00" stroke-linecap="butt"/>
  <path d="M124.16,26.21L165.56,12.2Q166.01,12.05 166.01,12.52L166,146.85A1.5,1.49 80.8,0 1,164.98 148.27L119.29,163.63Q118.81,163.79 118.8,164.29L118.73,167A0.49,0.49 0,0 0,119.38 167.48L169.51,150.33A0.73,0.73 0,0 0,170 149.64L170,7.25Q170,6.72 169.49,6.89L123.02,22.65" fill="none" stroke="#b79215" stroke-width="2.00" stroke-linecap="butt"/>
  <path d="M123.02,22.65Q120.95,20.23 120.31,18.01" fill="none" stroke="#372b00" stroke-width="2.00" stroke-linecap="butt"/>
  <path d="M14.75,160.24C11.3,161.41 9.02,161.66 9.02,157Q8.98,92.55 9.01,28.36A2.39,2.37 -9.4,0 1,10.63 26.11Q33.17,18.55 55.66,10.83Q56.25,10.63 56.25,10.01L56.25,7.41Q56.25,6.74 55.61,6.95L5.7,23.85A1.02,1.02 0,0 0,5 24.82L5,167.05Q5,167.62 5.53,167.43L55.65,150.42Q56.25,150.22 56.25,149.59L56.25,146.8A0.41,0.4 -9.4,0 0,55.71 146.42Q35.21,153.32 14.75,160.24" fill="none" stroke="#b79215" stroke-width="2.00" stroke-linecap="butt"/>
  <path d="M30.48,49.86C31.8,47.84 34.54,43.87 36.55,43.31Q45.5,40.83 55.5,38.27A0.71,0.7 -7.5,0 0,56.03 37.59L55.98,17.09Q55.98,16.64 55.56,16.79L15.02,30.5A0.77,0.77 0,0 0,14.5 31.23L14.5,73.12Q14.5,73.73 15.11,73.84L19.88,74.68A1.25,1.22 -61.7,0 0,20.96 74.34L29.74,65.63A2.25,2.23 -37.3,0 0,30.11 62.94Q26.33,56.24 30.48,49.86" fill="none" stroke="#7b9c44" stroke-width="2.00" stroke-linecap="butt"/>
  <path d="M118.77,77.56L118.74,121.02Q118.74,121.69 119.39,121.52C122.24,120.78 124.41,119.33 127.25,119.17C132.75,118.85 141.67,117.63 145.52,122.69Q151.48,130.53 158.52,137.41C159.22,138.1 159.7,139.03 160.23,139.87Q160.53,140.36 160.63,139.8Q160.98,137.99 160.89,136.17C160.52,128.41 160.76,120.54 160.74,112.74Q160.74,112.19 160.2,112.3C154.62,113.46 142.51,114.55 141.54,107.11C141.28,105.11 142.13,102.62 142.64,100.56A1.67,1.62 -48.3,0 0,142.6 99.62C139.95,91.5 142.86,87.88 146.49,81.4C149.1,76.74 156.4,76.38 160.11,79.4A0.39,0.39 0,0 0,160.75 79.1L160.75,34.81Q160.75,34.18 160.14,34.34L151.6,36.61Q151.15,36.73 150.9,37.13L147.67,42.49Q147.44,42.87 147.69,43.24Q150.35,47.13 150.93,48.32C156.64,59.9 148.61,72.83 135.93,74.5Q127.41,75.61 119.49,76.73A0.84,0.83 86.1,0 0,118.77 77.56" fill="none" stroke="#8d9a7d" stroke-width="2.00" stroke-linecap="butt"/>
  <path d="M112.33,77.51C107.9,77.45 103.21,76.26 98.22,73.6Q97.7,73.32 97.26,73.71L86.66,83.12A0.64,0.64 0,0 0,86.48 83.82Q89.17,90.88 91.42,98.13C92.61,101.95 90.45,111.63 86.9,113.91C83.29,116.23 78.06,113.93 78.05,109.26Q78.04,106.21 78.63,103.1A1.2,1.16 -57.9,0 0,78.44 102.21C70.39,90.85 64.77,84.46 66.48,71.34C67.69,62.13 70.09,51.56 68.5,42.33A1.58,1.58 0,0 0,66.54 41.07L62.37,42.16A0.51,0.5 82.6,0 0,62 42.65L62,139.78Q62,140.33 62.53,140.51L112.31,157.42Q113,157.65 113,156.93L113,78.19Q113,77.52 112.33,77.51" fill="none" stroke="#62816b" stroke-width="2.00" stroke-linecap="butt"/>
  <path d="M28.09,108.97C31.51,112.69 35.97,114.28 41.65,116.59A0.95,0.94 -51.2,0 0,42.54 116.49C48.78,112.05 53.15,116.02 52.93,122.73Q52.61,132.76 49.63,142.33Q49.47,142.84 49.99,142.67L55.72,140.78A0.78,0.78 0,0 0,56.25 140.04L56.25,44.24Q56.25,43.64 55.67,43.79Q48.23,45.68 40.76,47.71C36.95,48.75 34.92,52.89 33.74,56.33A1.36,1.36 0,0 0,33.77 57.3C38.06,67.89 32.47,70.51 25.87,76.9Q21.26,81.35 15.05,79.28Q14.47,79.08 14.47,79.7L14.5,98.42Q14.51,99.03 15.11,99.06C20.82,99.41 24.5,105.07 28.09,108.97" fill="none" stroke="#8d9a7d" stroke-width="2.00" stroke-linecap="butt"/>
  <path d="M159.4,85.82C157.67,82.95 154.54,81.36 151.36,83.13A1.09,1.07 -9.7,0 0,150.82 83.88C150.56,85.27 150.28,86.11 149.15,87.14C145.72,90.26 146.34,95.51 147.73,99.81A1.75,1.7 44.1,0 1,147.76 100.79Q147.03,103.48 146.32,106.19A0.82,0.81 -67.1,0 0,146.67 107.07C149.57,108.9 156.95,107.98 160.2,107.3Q160.69,107.2 160.7,106.69Q160.86,100.8 160.68,95.05C160.6,92.47 159.33,89.79 159.61,86.74A1.51,1.46 33.1,0 0,159.4 85.82" fill="none" stroke="#7b9c44" stroke-width="2.00" stroke-linecap="butt"/>
  <path d="M40.62,145.67C46.03,143.84 47.37,125.11 47.72,120.46A0.54,0.54 0,0 0,46.82 120.01C41.94,124.36 33.6,119.42 29.01,116.58C24.43,113.75 20.76,109.05 16.94,105.03Q14.5,102.45 14.5,106L14.5,153.98Q14.5,154.45 14.94,154.3Q27.84,150.01 40.62,145.67" fill="none" stroke="#7b9c44" stroke-width="2.00" stroke-linecap="butt"/>
  <path d="M141.94,126.81C137.65,121.7 124.44,124.97 119.25,127.25Q118.75,127.47 118.75,128.02L118.75,157.32Q118.75,157.93 119.32,157.73L156.77,144.83A0.39,0.38 -30.1,0 0,156.94 144.21Q149.34,135.64 141.94,126.81" fill="none" stroke="#7b9c44" stroke-width="2.00" stroke-linecap="butt"/>
  <path d="M113,163.64A0.33,0.33 0,0 0,112.78 163.32L62.44,146.41A0.33,0.33 0,0 0,62 146.72L62,149.98A0.33,0.33 0,0 0,62.22 150.3L112.56,167.36A0.33,0.33 0,0 0,113 167.05L113,163.64" fill="none" stroke="#b68216" stroke-width="2.00" stroke-linecap="butt"/>
  <path d="M82.58,13.75Q80.59,15.13 80.09,16.83" fill="none" stroke="#7f5716" stroke-width="2.00" stroke-linecap="butt"/>
  <path d="M124.16,26.21Q123.19,24.7 123.02,22.65" fill="none" stroke="#806815" stroke-width="2.00" stroke-linecap="butt"/>
  <path d="M124.63,31.75C124.83,39.31 121.97,43.01 118.89,49.42" fill="none" stroke="#447144" stroke-width="2.00" stroke-linecap="butt"/>
  <path d="M112.78,55.43C107.91,60.18 101.57,70.43 94.09,62.98C82.18,51.11 69.85,40.88 77.18,21.69" fill="none" stroke="#376637" stroke-width="2.00" stroke-linecap="butt"/>
  <path d="M92.27,12.51Q80.45,18.17 79.36,30.32C78.13,43.96 89.68,52.42 98.01,60.92A2.45,2.44 44.6,0 0,101.52 60.9L108.93,53.16" fill="none" stroke="#803827" stroke-width="2.00" stroke-linecap="butt"/>
  <path d="M108.93,53.16C112.01,49.99 115.77,46.55 117.68,42.76C126.52,25.29 111.53,6.21 92.27,12.51" fill="none" stroke="#804839" stroke-width="2.00" stroke-linecap="butt"/>
  <path d="M108.93,53.16Q100.71,50.97 100.09,43.1" fill="none" stroke="#ff7f5f" stroke-width="2.00" stroke-linecap="butt"/>
  <path d="M100.09,43.1C115.44,41.5 111.8,17.78 95.76,22.49" fill="none" stroke="#804839" stroke-width="2.00" stroke-linecap="butt"/>
  <path d="M95.76,22.49C91.61,20.57 92.25,16.29 92.27,12.51" fill="none" stroke="#ff7f5f" stroke-width="2.00" stroke-linecap="butt"/>
  <path d="M95.76,22.49Q85.44,29.1 91.5,38.75Q94.28,43.18 100.09,43.1" fill="none" stroke="#803827" stroke-width="2.00" stroke-linecap="butt"/>
  <path d="M95.34,28.04C88.77,39.83 106.92,42.87 105.68,31.13" fill="none" stroke="#376637" stroke-width="2.00" stroke-linecap="butt"/>
  <path d="M105.68,31.13Q102.68,23.21 95.34,28.04" fill="none" stroke="#372b00" stroke-width="2.00" stroke-linecap="butt"/>
  <path d="M105.68,31.13L95.34,28.04" fill="none" stroke="#6e9137" stroke-width="2.00" stroke-linecap="butt"/>
  <path d="M87.52,9.79L82.58,13.75L62.57,6.88Q62,6.69 62,7.29L62,10.23Q62,10.71 62.45,10.86L80.09,16.83L77.18,21.69L62.43,16.72Q62,16.57 62,17.03L62,36.01A0.39,0.38 -10.1,0 0,62.52 36.37C70.67,33.48 74.67,38.23 74.56,45.76Q74.38,58.59 72.14,71.24C70.96,77.93 71.84,82.73 75.44,88.04C77.8,91.52 83.88,98.74 83.99,102.79C84.01,103.57 83.43,109.21 83.54,109.31A0.31,0.31 0,0 0,84.03 109.17L86.43,101.5Q86.54,101.15 86.41,100.79Q84.44,95.12 82.58,89.45C80.99,84.61 79.66,82.2 83.43,78.68C87.27,75.1 95.4,65.72 99.93,68.31Q105.72,71.62 112.44,72.01Q112.95,72.04 112.95,71.53L112.78,55.43Q114.97,52.47 118.89,49.42L118.98,70.94Q118.98,71.44 119.48,71.38C125.76,70.68 136.68,70.15 141.73,66.98C148.59,62.68 148.72,52.96 143.78,47.01C142.33,45.26 141.47,42.59 142.49,40.76C144.29,37.58 146.19,32.75 150.03,31.57Q154.99,30.05 160.17,28.95Q160.75,28.83 160.75,28.24L160.75,20.05Q160.75,19.52 160.25,19.69L124.63,31.75L124.16,26.21L165.56,12.2Q166.01,12.05 166.01,12.52L166,146.85A1.5,1.49 80.8,0 1,164.98 148.27L119.29,163.63Q118.81,163.79 118.8,164.29L118.73,167A0.49,0.49 0,0 0,119.38 167.48L169.51,150.33A0.73,0.73 0,0 0,170 149.64L170,7.25Q170,6.72 169.49,6.89L123.02,22.65Q120.95,20.23 120.31,18.01Q145.96,9.25 171.25,0.75Q173.78,-0.1 175,1.32L175,153.2L116.1,174L115.55,174L59.53,154.83Q59.05,154.67 58.57,154.83Q30.88,164.29 3.23,173.68Q1.15,174.38 0,172.18L0,20.41L58.82,0.37A1.45,1.41 44.1,0 1,59.75 0.37L87.52,9.79ZM14.75,160.24C11.3,161.41 9.02,161.66 9.02,157Q8.98,92.55 9.01,28.36A2.39,2.37 -9.4,0 1,10.63 26.11Q33.17,18.55 55.66,10.83Q56.25,10.63 56.25,10.01L56.25,7.41Q56.25,6.74 55.61,6.95L5.7,23.85A1.02,1.02 0,0 0,5 24.82L5,167.05Q5,167.62 5.53,167.43L55.65,150.42Q56.25,150.22 56.25,149.59L56.25,146.8A0.41,0.4 -9.4,0 0,55.71 146.42Q35.21,153.32 14.75,160.24ZM30.48,49.86C31.8,47.84 34.54,43.87 36.55,43.31Q45.5,40.83 55.5,38.27A0.71,0.7 -7.5,0 0,56.03 37.59L55.98,17.09Q55.98,16.64 55.56,16.79L15.02,30.5A0.77,0.77 0,0 0,14.5 31.23L14.5,73.12Q14.5,73.73 15.11,73.84L19.88,74.68A1.25,1.22 -61.7,0 0,20.96 74.34L29.74,65.63A2.25,2.23 -37.3,0 0,30.11 62.94Q26.33,56.24 30.48,49.86ZM118.77,77.56L118.74,121.02Q118.74,121.69 119.39,121.52C122.24,120.78 124.41,119.33 127.25,119.17C132.75,118.85 141.67,117.63 145.52,122.69Q151.48,130.53 158.52,137.41C159.22,138.1 159.7,139.03 160.23,139.87Q160.53,140.36 160.63,139.8Q160.98,137.99 160.89,136.17C160.52,128.41 160.76,120.54 160.74,112.74Q160.74,112.19 160.2,112.3C154.62,113.46 142.51,114.55 141.54,107.11C141.28,105.11 142.13,102.62 142.64,100.56A1.67,1.62 -48.3,0 0,142.6 99.62C139.95,91.5 142.86,87.88 146.49,81.4C149.1,76.74 156.4,76.38 160.11,79.4A0.39,0.39 0,0 0,160.75 79.1L160.75,34.81Q160.75,34.18 160.14,34.34L151.6,36.61Q151.15,36.73 150.9,37.13L147.67,42.49Q147.44,42.87 147.69,43.24Q150.35,47.13 150.93,48.32C156.64,59.9 148.61,72.83 135.93,74.5Q127.41,75.61 119.49,76.73A0.84,0.83 86.1,0 0,118.77 77.56ZM112.33,77.51C107.9,77.45 103.21,76.26 98.22,73.6Q97.7,73.32 97.26,73.71L86.66,83.12A0.64,0.64 0,0 0,86.48 83.82Q89.17,90.88 91.42,98.13C92.61,101.95 90.45,111.63 86.9,113.91C83.29,116.23 78.06,113.93 78.05,109.26Q78.04,106.21 78.63,103.1A1.2,1.16 -57.9,0 0,78.44 102.21C70.39,90.85 64.77,84.46 66.48,71.34C67.69,62.13 70.09,51.56 68.5,42.33A1.58,1.58 0,0 0,66.54 41.07L62.37,42.16A0.51,0.5 82.6,0 0,62 42.65L62,139.78Q62,140.33 62.53,140.51L112.31,157.42Q113,157.65 113,156.93L113,78.19Q113,77.52 112.33,77.51ZM28.09,108.97C31.51,112.69 35.97,114.28 41.65,116.59A0.95,0.94 -51.2,0 0,42.54 116.49C48.78,112.05 53.15,116.02 52.93,122.73Q52.61,132.76 49.63,142.33Q49.47,142.84 49.99,142.67L55.72,140.78A0.78,0.78 0,0 0,56.25 140.04L56.25,44.24Q56.25,43.64 55.67,43.79Q48.23,45.68 40.76,47.71C36.95,48.75 34.92,52.89 33.74,56.33A1.36,1.36 0,0 0,33.77 57.3C38.06,67.89 32.47,70.51 25.87,76.9Q21.26,81.35 15.05,79.28Q14.47,79.08 14.47,79.7L14.5,98.42Q14.51,99.03 15.11,99.06C20.82,99.41 24.5,105.07 28.09,108.97ZM159.4,85.82C157.67,82.95 154.54,81.36 151.36,83.13A1.09,1.07 -9.7,0 0,150.82 83.88C150.56,85.27 150.28,86.11 149.15,87.14C145.72,90.26 146.34,95.51 147.73,99.81A1.75,1.7 44.1,0 1,147.76 100.79Q147.03,103.48 146.32,106.19A0.82,0.81 -67.1,0 0,146.67 107.07C149.57,108.9 156.95,107.98 160.2,107.3Q160.69,107.2 160.7,106.69Q160.86,100.8 160.68,95.05C160.6,92.47 159.33,89.79 159.61,86.74A1.51,1.46 33.1,0 0,159.4 85.82ZM40.62,145.67C46.03,143.84 47.37,125.11 47.72,120.46A0.54,0.54 0,0 0,46.82 120.01C41.94,124.36 33.6,119.42 29.01,116.58C24.43,113.75 20.76,109.05 16.94,105.03Q14.5,102.45 14.5,106L14.5,153.98Q14.5,154.45 14.94,154.3Q27.84,150.01 40.62,145.67ZM141.94,126.81C137.65,121.7 124.44,124.97 119.25,127.25Q118.75,127.47 118.75,128.02L118.75,157.32Q118.75,157.93 119.32,157.73L156.77,144.83A0.39,0.38 -30.1,0 0,156.94 144.21Q149.34,135.64 141.94,126.81ZM113,163.64A0.33,0.33 0,0 0,112.78 163.32L62.44,146.41A0.33,0.33 0,0 0,62 146.72L62,149.98A0.33,0.33 0,0 0,62.22 150.3L112.56,167.36A0.33,0.33 0,0 0,113 167.05L113,163.64Z" fill="#6e5500"/>
  <path d="M9.02,157C9.02,161.66 11.3,161.41 14.75,160.24Q35.21,153.32 55.71,146.42A0.41,0.4 -9.4,0 1,56.25 146.8L56.25,149.59Q56.25,150.22 55.65,150.42L5.53,167.43Q5,167.62 5,167.05L5,24.82A1.02,1.02 0,0 1,5.7 23.85L55.61,6.95Q56.25,6.74 56.25,7.41L56.25,10.01Q56.25,10.63 55.66,10.83Q33.17,18.55 10.63,26.11A2.39,2.37 -9.4,0 0,9.01 28.36Q8.98,92.55 9.02,157Z" fill="#ffcf29"/>
  <path d="M82.58,13.75Q80.59,15.13 80.09,16.83L62.45,10.86Q62,10.71 62,10.23L62,7.29Q62,6.69 62.57,6.88L82.58,13.75Z" fill="#feae2c"/>
  <path d="M124.16,26.21Q123.19,24.7 123.02,22.65L169.49,6.89Q170,6.72 170,7.25L170,149.64A0.73,0.73 0,0 1,169.51 150.33L119.38,167.48A0.49,0.49 0,0 1,118.73 167L118.8,164.29Q118.81,163.79 119.29,163.63L164.98,148.27A1.5,1.49 80.8,0 0,166 146.85L166.01,12.52Q166.01,12.05 165.56,12.2L124.16,26.21Z" fill="#ffcf29"/>
  <path d="M120.31,18.01Q120.95,20.23 123.02,22.65Q123.19,24.7 124.16,26.21L124.63,31.75C124.83,39.31 121.97,43.01 118.89,49.42Q114.97,52.47 112.78,55.43C107.91,60.18 101.57,70.43 94.09,62.98C82.18,51.11 69.85,40.88 77.18,21.69L80.09,16.83Q80.59,15.13 82.58,13.75L87.52,9.79Q107.89,1.33 120.31,18.01ZM92.27,12.51Q80.45,18.17 79.36,30.32C78.13,43.96 89.68,52.42 98.01,60.92A2.45,2.44 44.6,0 0,101.52 60.9L108.93,53.16C112.01,49.99 115.77,46.55 117.68,42.76C126.52,25.29 111.53,6.21 92.27,12.51Z" fill="#000000"/>
  <path d="M108.93,53.16Q100.71,50.97 100.09,43.1C115.44,41.5 111.8,17.78 95.76,22.49C91.61,20.57 92.25,16.29 92.27,12.51C111.53,6.21 126.52,25.29 117.68,42.76C115.77,46.55 112.01,49.99 108.93,53.16Z" fill="#ff8f71"/>
  <path d="M92.27,12.51C92.25,16.29 91.61,20.57 95.76,22.49Q85.44,29.1 91.5,38.75Q94.28,43.18 100.09,43.1Q100.71,50.97 108.93,53.16L101.52,60.9A2.45,2.44 44.6,0 1,98.01 60.92C89.68,52.42 78.13,43.96 79.36,30.32Q80.45,18.17 92.27,12.51Z" fill="#ff6f4d"/>
  <path d="M30.48,49.86Q26.33,56.24 30.11,62.94A2.25,2.23 -37.3,0 1,29.74 65.63L20.96,74.34A1.25,1.22 -61.7,0 1,19.88 74.68L15.11,73.84Q14.5,73.73 14.5,73.12L14.5,31.23A0.77,0.77 0,0 1,15.02 30.5L55.56,16.79Q55.98,16.64 55.98,17.09L56.03,37.59A0.71,0.7 -7.5,0 1,55.5 38.27Q45.5,40.83 36.55,43.31C34.54,43.87 31.8,47.84 30.48,49.86Z" fill="#88e288"/>
  <path d="M77.18,21.69C69.85,40.88 82.18,51.11 94.09,62.98C101.57,70.43 107.91,60.18 112.78,55.43L112.95,71.53Q112.95,72.04 112.44,72.01Q105.72,71.62 99.93,68.31C95.4,65.72 87.27,75.1 83.43,78.68C79.66,82.2 80.99,84.61 82.58,89.45Q84.44,95.12 86.41,100.79Q86.54,101.15 86.43,101.5L84.03,109.17A0.31,0.31 0,0 1,83.54 109.31C83.43,109.21 84.01,103.57 83.99,102.79C83.88,98.74 77.8,91.52 75.44,88.04C71.84,82.73 70.96,77.93 72.14,71.24Q74.38,58.59 74.56,45.76C74.67,38.23 70.67,33.48 62.52,36.37A0.39,0.38 -10.1,0 1,62 36.01L62,17.03Q62,16.57 62.43,16.72L77.18,21.69Z" fill="#6dcc6d"/>
  <path d="M118.89,49.42C121.97,43.01 124.83,39.31 124.63,31.75L160.25,19.69Q160.75,19.52 160.75,20.05L160.75,28.24Q160.75,28.83 160.17,28.95Q154.99,30.05 150.03,31.57C146.19,32.75 144.29,37.58 142.49,40.76C141.47,42.59 142.33,45.26 143.78,47.01C148.72,52.96 148.59,62.68 141.73,66.98C136.68,70.15 125.76,70.68 119.48,71.38Q118.98,71.44 118.98,70.94L118.89,49.42Z" fill="#88e288"/>
  <path d="M100.09,43.1Q94.28,43.18 91.5,38.75Q85.44,29.1 95.76,22.49C111.8,17.78 115.44,41.5 100.09,43.1ZM95.34,28.04C88.77,39.83 106.92,42.87 105.68,31.13Q102.68,23.21 95.34,28.04Z" fill="#000000"/>
  <path d="M105.68,31.13L95.34,28.04Q102.68,23.21 105.68,31.13Z" fill="#6e5500"/>
  <path d="M95.34,28.04L105.68,31.13C106.92,42.87 88.77,39.83 95.34,28.04Z" fill="#6dcc6d"/>
  <path d="M118.77,77.56A0.84,0.83 86.1,0 1,119.49 76.73Q127.41,75.61 135.93,74.5C148.61,72.83 156.64,59.9 150.93,48.32Q150.35,47.13 147.69,43.24Q147.44,42.87 147.67,42.49L150.9,37.13Q151.15,36.73 151.6,36.61L160.14,34.34Q160.75,34.18 160.75,34.81L160.75,79.1A0.39,0.39 0,0 1,160.11 79.4C156.4,76.38 149.1,76.74 146.49,81.4C142.86,87.88 139.95,91.5 142.6,99.62A1.67,1.62 -48.3,0 1,142.64 100.56C142.13,102.62 141.28,105.11 141.54,107.11C142.51,114.55 154.62,113.46 160.2,112.3Q160.74,112.19 160.74,112.74C160.76,120.54 160.52,128.41 160.89,136.17Q160.98,137.99 160.63,139.8Q160.53,140.36 160.23,139.87C159.7,139.03 159.22,138.1 158.52,137.41Q151.48,130.53 145.52,122.69C141.67,117.63 132.75,118.85 127.25,119.17C124.41,119.33 122.24,120.78 119.39,121.52Q118.74,121.69 118.74,121.02L118.77,77.56Z" fill="#acdef9"/>
  <path d="M98.22,73.6C103.21,76.26 107.9,77.45 112.33,77.51Q113,77.52 113,78.19L113,156.93Q113,157.65 112.31,157.42L62.53,140.51Q62,140.33 62,139.78L62,42.65A0.51,0.5 82.6,0 1,62.37 42.16L66.54,41.07A1.58,1.58 0,0 1,68.5 42.33C70.09,51.56 67.69,62.13 66.48,71.34C64.77,84.46 70.39,90.85 78.44,102.21A1.2,1.16 -57.9,0 1,78.63 103.1Q78.04,106.21 78.05,109.26C78.06,113.93 83.29,116.23 86.9,113.91C90.45,111.63 92.61,101.95 91.42,98.13Q89.17,90.88 86.48,83.82A0.64,0.64 0,0 1,86.66 83.12L97.26,73.71Q97.7,73.32 98.22,73.6Z" fill="#55acd5"/>
  <path d="M28.09,108.97C24.5,105.07 20.82,99.41 15.11,99.06Q14.51,99.03 14.5,98.42L14.47,79.7Q14.47,79.08 15.05,79.28Q21.26,81.35 25.87,76.9C32.47,70.51 38.06,67.89 33.77,57.3A1.36,1.36 0,0 1,33.74 56.33C34.92,52.89 36.95,48.75 40.76,47.71Q48.23,45.68 55.67,43.79Q56.25,43.64 56.25,44.24L56.25,140.04A0.78,0.78 0,0 1,55.72 140.78L49.99,142.67Q49.47,142.84 49.63,142.33Q52.61,132.76 52.93,122.73C53.15,116.02 48.78,112.05 42.54,116.49A0.95,0.94 -51.2,0 1,41.65 116.59C35.97,114.28 31.51,112.69 28.09,108.97Z" fill="#acdef9"/>
  <path d="M151.36,83.13C154.54,81.36 157.67,82.95 159.4,85.82A1.51,1.46 33.1,0 1,159.61 86.74C159.33,89.79 160.6,92.47 160.68,95.05Q160.86,100.8 160.7,106.69Q160.69,107.2 160.2,107.3C156.95,107.98 149.57,108.9 146.67,107.07A0.82,0.81 -67.1,0 1,146.32 106.19Q147.03,103.48 147.76,100.79A1.75,1.7 44.1,0 0,147.73 99.81C146.34,95.51 145.72,90.26 149.15,87.14C150.28,86.11 150.56,85.27 150.82,83.88A1.09,1.07 -9.7,0 1,151.36 83.13Z" fill="#88e288"/>
  <path d="M47.72,120.46C47.37,125.11 46.03,143.84 40.62,145.67Q27.84,150.01 14.94,154.3Q14.5,154.45 14.5,153.98L14.5,106Q14.5,102.45 16.94,105.03C20.76,109.05 24.43,113.75 29.01,116.58C33.6,119.42 41.94,124.36 46.82,120.01A0.54,0.54 0,0 1,47.72 120.46Z" fill="#88e288"/>
  <path d="M119.25,127.25C124.44,124.97 137.65,121.7 141.94,126.81Q149.34,135.64 156.94,144.21A0.39,0.38 -30.1,0 1,156.77 144.83L119.32,157.73Q118.75,157.93 118.75,157.32L118.75,128.02Q118.75,127.47 119.25,127.25Z" fill="#88e288"/>
  <path d="M113,163.64L113,167.05A0.33,0.33 0,0 1,112.56 167.36L62.22,150.3A0.33,0.33 0,0 1,62 149.98L62,146.72A0.33,0.33 0,0 1,62.44 146.41L112.78,163.32A0.33,0.33 0,0 1,113 163.64Z" fill="#feae2c"/>
</svg>
