<svg xmlns="http://www.w3.org/2000/svg" width="175" height="174" viewBox="0 0 175 174">
  <path d="M130.93,23.63Q84.78,31.55 46.58,57.4" fill="none" stroke="#2894d3" stroke-width="2.00" stroke-linecap="butt"/>
  <path d="M46.58,57.4Q42.78,54.2 38.08,54.87C30.59,55.93 27.05,62.47 29.78,69.7" fill="none" stroke="#98cfed" stroke-width="2.00" stroke-linecap="butt"/>
  <path d="M29.78,69.7Q13.89,83.62 0,100.05" fill="none" stroke="#2894d3" stroke-width="2.00" stroke-linecap="butt"/>
  <path d="M29.78,69.7C38.64,82.73 56.59,70.83 46.58,57.4" fill="none" stroke="#8fc4e5" stroke-width="2.00" stroke-linecap="butt"/>
  <path d="M77.2,65.02A10.37,10.37 0,0 0,66.83 54.65A10.37,10.37 0,0 0,56.46 65.02A10.37,10.37 0,0 0,66.83 75.39A10.37,10.37 0,0 0,77.2 65.02" fill="none" stroke="#8fc4e5" stroke-width="2.00" stroke-linecap="butt"/>
  <path d="M104.87,65.02A10.39,10.39 0,0 0,94.48 54.63A10.39,10.39 0,0 0,84.09 65.02A10.39,10.39 0,0 0,94.48 75.41A10.39,10.39 0,0 0,104.87 65.02" fill="none" stroke="#8fc4e5" stroke-width="2.00" stroke-linecap="butt"/>
  <path d="M130.93,23.63Q84.78,31.55 46.58,57.4Q42.78,54.2 38.08,54.87C30.59,55.93 27.05,62.47 29.78,69.7Q13.89,83.62 0,100.05L0,28.71C2.8,20.62 8.38,18.01 16.78,18Q68.77,18 120.75,18Q126.36,18 130.93,23.63Z" fill="#319fda"/>
  <path d="M130.93,23.63Q132.73,25.74 133.68,29.05Q134.31,31.28 134.3,35.01Q134.26,64.99 134.27,94.95C134.27,109.73 127.76,114.04 113.77,114.01Q87.24,113.95 60.69,114.02Q60.11,114.02 59.68,114.4L26.28,143.21A0.5,0.5 0,0 1,25.46 142.79L28.15,114.47A0.42,0.42 0,0 0,27.73 114.01C16.57,114.01 4.45,116.18 0,102.72L0,100.05Q13.89,83.62 29.78,69.7C38.64,82.73 56.59,70.83 46.58,57.4Q84.78,31.55 130.93,23.63ZM77.2,65.02A10.37,10.37 0,0 0,66.83 54.65A10.37,10.37 0,0 0,56.46 65.02A10.37,10.37 0,0 0,66.83 75.39A10.37,10.37 0,0 0,77.2 65.02ZM104.87,65.02A10.39,10.39 0,0 0,94.48 54.63A10.39,10.39 0,0 0,84.09 65.02A10.39,10.39 0,0 0,94.48 75.41A10.39,10.39 0,0 0,104.87 65.02Z" fill="#1e89cb"/>
  <path d="M46.58,57.4C56.59,70.83 38.64,82.73 29.78,69.7C27.05,62.47 30.59,55.93 38.08,54.87Q42.78,54.2 46.58,57.4Z" fill="#ffffff"/>
  <path d="M66.83,65.02m-10.37,0a10.37,10.37 0,1 1,20.74 0a10.37,10.37 0,1 1,-20.74 0" fill="#ffffff"/>
  <path d="M94.48,65.02m-10.39,0a10.39,10.39 0,1 1,20.78 0a10.39,10.39 0,1 1,-20.78 0" fill="#ffffff"/>
  <path d="M175,69.79L175,125.56C171.73,135.52 162.81,134.39 154.32,134.23A0.88,0.88 0,0 0,153.43 135.21C154.21,141.91 154.2,149.28 155.71,155.75A0.63,0.63 0,0 1,154.69 156.37L129.36,134.6Q128.95,134.25 128.4,134.25Q107.98,134.25 87.59,134.25C79.21,134.25 73.07,131.73 72.49,122.58A1,1 0,0 1,73.49 121.51Q95.3,121.48 116.48,121.53C131.65,121.56 141.82,112.82 141.77,97.2Q141.72,79.22 141.76,61.45A0.69,0.69 0,0 1,142.45 60.76Q151.12,60.73 159.87,60.75C167.53,60.77 172.82,62.2 175,69.79Z" fill="#1065a4"/>
</svg>
