<svg xmlns="http://www.w3.org/2000/svg" width="175" height="174" viewBox="0 0 175 174">
  <path d="M13.32,3C13.86,38.83 24.18,69.37 44.47,97.82" fill="none" stroke="#2486c3" stroke-width="2.00" stroke-linecap="butt"/>
  <path d="M44.47,97.82Q44.13,97.92 43.98,98.13Q43.69,98.53 43.99,98.93Q57.87,117.43 75.16,130.6Q118.48,163.6 174.55,162.86" fill="none" stroke="#106da8" stroke-width="2.00" stroke-linecap="butt"/>
  <path d="M174.74,154.58C123.44,159.49 75.37,138.71 44.47,97.82" fill="none" stroke="#2381ba" stroke-width="2.00" stroke-linecap="butt"/>
  <path d="M13.32,3C13.86,38.83 24.18,69.37 44.47,97.82Q44.13,97.92 43.98,98.13Q43.69,98.53 43.99,98.93Q57.87,117.43 75.16,130.6Q118.48,163.6 174.55,162.86C173.15,167.3 170.19,172.85 165.24,172.79Q158.23,172.71 154.76,172.26C70.93,161.42 7.47,97.55 0,12.96L0,9.7C2.25,2.14 6.93,3 13.32,3Z" fill="#1172b0"/>
  <path d="M13.32,3L53.84,3Q54.33,3 54.66,3.35Q57.18,5.98 57.32,8Q58.63,27.21 66.1,48.22C66.9,50.46 65.46,52.65 63.76,54.43Q54.59,64.07 45.48,73.79Q45.13,74.16 45.39,74.59C59.75,98.33 80.61,116.4 104.17,129.68A1.21,1.21 0,0 0,105.64 129.46Q115.25,119.31 125.37,109.76C126.43,108.75 128.31,108.38 129.63,108.92Q148.13,116.52 168.19,116.78C171.92,116.83 174.76,123.59 174.76,126.66Q174.75,140.82 174.74,154.58C123.44,159.49 75.37,138.71 44.47,97.82C24.18,69.37 13.86,38.83 13.32,3Z" fill="#369ad5"/>
  <path d="M44.47,97.82C75.37,138.71 123.44,159.49 174.74,154.58L174.55,162.86Q118.48,163.6 75.16,130.6Q57.87,117.43 43.99,98.93Q43.69,98.53 43.98,98.13Q44.13,97.92 44.47,97.82Z" fill="#0f679f"/>
</svg>
